<mxfile host="app.diagrams.net" modified="2021-11-14T20:16:15.765Z" agent="5.0 (Windows NT 10.0; Win64; x64) AppleWebKit/537.36 (KHTML, like Gecko) Chrome/95.0.4638.69 Safari/537.36" etag="gsEYpgyTbwDAVQAmNScw" version="15.7.3" type="github">
  <diagram id="C5RBs43oDa-KdzZeNtuy" name="Page-1">
    <mxGraphModel dx="868" dy="6339" grid="0" gridSize="10" guides="1" tooltips="1" connect="1" arrows="1" fold="1" page="1" pageScale="1" pageWidth="827" pageHeight="1169" math="0" shadow="1">
      <root>
        <mxCell id="WIyWlLk6GJQsqaUBKTNV-0" />
        <mxCell id="WIyWlLk6GJQsqaUBKTNV-1" parent="WIyWlLk6GJQsqaUBKTNV-0" />
        <mxCell id="7aczeXKKdlZf4Kcv0Hij-22" style="edgeStyle=orthogonalEdgeStyle;rounded=1;orthogonalLoop=1;jettySize=auto;html=1;entryX=0.5;entryY=0;entryDx=0;entryDy=0;strokeWidth=3;" parent="WIyWlLk6GJQsqaUBKTNV-1" source="7aczeXKKdlZf4Kcv0Hij-20" target="7aczeXKKdlZf4Kcv0Hij-21" edge="1">
          <mxGeometry relative="1" as="geometry" />
        </mxCell>
        <mxCell id="7aczeXKKdlZf4Kcv0Hij-20" value="Inicio" style="strokeWidth=2;html=1;shape=mxgraph.flowchart.terminator;whiteSpace=wrap;" parent="WIyWlLk6GJQsqaUBKTNV-1" vertex="1">
          <mxGeometry x="350" y="-4300" width="100" height="40" as="geometry" />
        </mxCell>
        <mxCell id="7aczeXKKdlZf4Kcv0Hij-24" style="edgeStyle=orthogonalEdgeStyle;rounded=1;orthogonalLoop=1;jettySize=auto;html=1;entryX=0.5;entryY=0;entryDx=0;entryDy=0;strokeWidth=3;" parent="WIyWlLk6GJQsqaUBKTNV-1" source="7aczeXKKdlZf4Kcv0Hij-21" target="7aczeXKKdlZf4Kcv0Hij-23" edge="1">
          <mxGeometry relative="1" as="geometry" />
        </mxCell>
        <mxCell id="7aczeXKKdlZf4Kcv0Hij-21" value="num1, num2" style="html=1;strokeWidth=2;shape=manualInput;whiteSpace=wrap;rounded=1;size=26;arcSize=11;" parent="WIyWlLk6GJQsqaUBKTNV-1" vertex="1">
          <mxGeometry x="350" y="-4200" width="100" height="60" as="geometry" />
        </mxCell>
        <mxCell id="7aczeXKKdlZf4Kcv0Hij-26" style="edgeStyle=orthogonalEdgeStyle;rounded=1;orthogonalLoop=1;jettySize=auto;html=1;entryX=0.5;entryY=0;entryDx=0;entryDy=0;entryPerimeter=0;strokeWidth=3;" parent="WIyWlLk6GJQsqaUBKTNV-1" source="7aczeXKKdlZf4Kcv0Hij-23" target="7aczeXKKdlZf4Kcv0Hij-25" edge="1">
          <mxGeometry relative="1" as="geometry" />
        </mxCell>
        <mxCell id="7aczeXKKdlZf4Kcv0Hij-23" value="resultado&amp;nbsp;&lt;b&gt;&amp;lt;-&lt;/b&gt;&amp;nbsp;num1 + num2" style="rounded=1;whiteSpace=wrap;html=1;absoluteArcSize=1;arcSize=14;strokeWidth=2;" parent="WIyWlLk6GJQsqaUBKTNV-1" vertex="1">
          <mxGeometry x="320" y="-4080" width="160" height="60" as="geometry" />
        </mxCell>
        <mxCell id="7aczeXKKdlZf4Kcv0Hij-28" style="edgeStyle=orthogonalEdgeStyle;rounded=1;orthogonalLoop=1;jettySize=auto;html=1;entryX=0.5;entryY=0;entryDx=0;entryDy=0;entryPerimeter=0;strokeWidth=3;" parent="WIyWlLk6GJQsqaUBKTNV-1" source="7aczeXKKdlZf4Kcv0Hij-25" target="7aczeXKKdlZf4Kcv0Hij-27" edge="1">
          <mxGeometry relative="1" as="geometry" />
        </mxCell>
        <mxCell id="7aczeXKKdlZf4Kcv0Hij-25" value="&lt;p class=&quot;MsoNormal&quot;&gt;&lt;span style=&quot;font-family: &amp;#34;trebuchet ms&amp;#34; , sans-serif&quot;&gt;O resultado&lt;br/&gt;é: “ resultado”&lt;/span&gt;&lt;/p&gt;" style="strokeWidth=2;html=1;shape=mxgraph.flowchart.display;whiteSpace=wrap;" parent="WIyWlLk6GJQsqaUBKTNV-1" vertex="1">
          <mxGeometry x="320" y="-3980" width="160" height="50" as="geometry" />
        </mxCell>
        <mxCell id="7aczeXKKdlZf4Kcv0Hij-27" value="Fim" style="strokeWidth=2;html=1;shape=mxgraph.flowchart.terminator;whiteSpace=wrap;" parent="WIyWlLk6GJQsqaUBKTNV-1" vertex="1">
          <mxGeometry x="350" y="-3870" width="100" height="40" as="geometry" />
        </mxCell>
        <mxCell id="7aczeXKKdlZf4Kcv0Hij-67" value="Exerccio_2" style="text;html=1;align=center;verticalAlign=middle;resizable=0;points=[];autosize=1;strokeColor=none;fillColor=none;" parent="WIyWlLk6GJQsqaUBKTNV-1" vertex="1">
          <mxGeometry x="365" y="-4360" width="70" height="20" as="geometry" />
        </mxCell>
        <mxCell id="Wzc2rEjhIDLnKcr3N48x-109" value="" style="edgeStyle=orthogonalEdgeStyle;rounded=0;orthogonalLoop=1;jettySize=auto;html=1;fontSize=17;strokeWidth=3;" edge="1" parent="WIyWlLk6GJQsqaUBKTNV-1" source="7aczeXKKdlZf4Kcv0Hij-70" target="7aczeXKKdlZf4Kcv0Hij-72">
          <mxGeometry relative="1" as="geometry" />
        </mxCell>
        <mxCell id="7aczeXKKdlZf4Kcv0Hij-70" value="Inicio" style="strokeWidth=2;html=1;shape=mxgraph.flowchart.terminator;whiteSpace=wrap;" parent="WIyWlLk6GJQsqaUBKTNV-1" vertex="1">
          <mxGeometry x="365" y="-5349" width="100" height="40" as="geometry" />
        </mxCell>
        <mxCell id="Wzc2rEjhIDLnKcr3N48x-108" style="edgeStyle=orthogonalEdgeStyle;rounded=0;orthogonalLoop=1;jettySize=auto;html=1;entryX=0.5;entryY=0;entryDx=0;entryDy=0;fontSize=17;strokeWidth=3;" edge="1" parent="WIyWlLk6GJQsqaUBKTNV-1" source="7aczeXKKdlZf4Kcv0Hij-72" target="7aczeXKKdlZf4Kcv0Hij-84">
          <mxGeometry relative="1" as="geometry" />
        </mxCell>
        <mxCell id="7aczeXKKdlZf4Kcv0Hij-72" value="digite o numero" style="html=1;strokeWidth=2;shape=manualInput;whiteSpace=wrap;rounded=1;size=26;arcSize=11;" parent="WIyWlLk6GJQsqaUBKTNV-1" vertex="1">
          <mxGeometry x="360" y="-5255" width="110" height="60" as="geometry" />
        </mxCell>
        <mxCell id="7aczeXKKdlZf4Kcv0Hij-73" style="edgeStyle=orthogonalEdgeStyle;rounded=1;orthogonalLoop=1;jettySize=auto;html=1;entryX=0.5;entryY=0;entryDx=0;entryDy=0;entryPerimeter=0;strokeWidth=3;" parent="WIyWlLk6GJQsqaUBKTNV-1" source="7aczeXKKdlZf4Kcv0Hij-75" target="7aczeXKKdlZf4Kcv0Hij-78" edge="1">
          <mxGeometry relative="1" as="geometry" />
        </mxCell>
        <mxCell id="7aczeXKKdlZf4Kcv0Hij-74" style="edgeStyle=orthogonalEdgeStyle;rounded=1;orthogonalLoop=1;jettySize=auto;html=1;entryX=0;entryY=0.5;entryDx=0;entryDy=0;entryPerimeter=0;strokeWidth=3;" parent="WIyWlLk6GJQsqaUBKTNV-1" source="7aczeXKKdlZf4Kcv0Hij-75" target="7aczeXKKdlZf4Kcv0Hij-80" edge="1">
          <mxGeometry relative="1" as="geometry" />
        </mxCell>
        <mxCell id="7aczeXKKdlZf4Kcv0Hij-75" value="num &amp;gt; 0" style="strokeWidth=2;html=1;shape=mxgraph.flowchart.decision;whiteSpace=wrap;" parent="WIyWlLk6GJQsqaUBKTNV-1" vertex="1">
          <mxGeometry x="360" y="-4950" width="100" height="70" as="geometry" />
        </mxCell>
        <mxCell id="7aczeXKKdlZf4Kcv0Hij-76" value="Fim" style="strokeWidth=2;html=1;shape=mxgraph.flowchart.terminator;whiteSpace=wrap;" parent="WIyWlLk6GJQsqaUBKTNV-1" vertex="1">
          <mxGeometry x="550" y="-4830" width="80" height="40" as="geometry" />
        </mxCell>
        <mxCell id="7aczeXKKdlZf4Kcv0Hij-77" style="edgeStyle=orthogonalEdgeStyle;rounded=1;orthogonalLoop=1;jettySize=auto;html=1;entryX=0;entryY=0.5;entryDx=0;entryDy=0;entryPerimeter=0;strokeWidth=3;" parent="WIyWlLk6GJQsqaUBKTNV-1" source="7aczeXKKdlZf4Kcv0Hij-78" target="7aczeXKKdlZf4Kcv0Hij-76" edge="1">
          <mxGeometry relative="1" as="geometry" />
        </mxCell>
        <mxCell id="7aczeXKKdlZf4Kcv0Hij-78" value="&quot;Posetivo&quot;" style="strokeWidth=2;html=1;shape=mxgraph.flowchart.document2;whiteSpace=wrap;size=0.25;" parent="WIyWlLk6GJQsqaUBKTNV-1" vertex="1">
          <mxGeometry x="360" y="-4810" width="100" height="40" as="geometry" />
        </mxCell>
        <mxCell id="7aczeXKKdlZf4Kcv0Hij-79" style="edgeStyle=orthogonalEdgeStyle;rounded=1;orthogonalLoop=1;jettySize=auto;html=1;entryX=0.5;entryY=0;entryDx=0;entryDy=0;entryPerimeter=0;strokeWidth=3;" parent="WIyWlLk6GJQsqaUBKTNV-1" source="7aczeXKKdlZf4Kcv0Hij-80" target="7aczeXKKdlZf4Kcv0Hij-76" edge="1">
          <mxGeometry relative="1" as="geometry" />
        </mxCell>
        <mxCell id="7aczeXKKdlZf4Kcv0Hij-80" value="&quot;Negativo&quot;" style="strokeWidth=2;html=1;shape=mxgraph.flowchart.document2;whiteSpace=wrap;size=0.25;" parent="WIyWlLk6GJQsqaUBKTNV-1" vertex="1">
          <mxGeometry x="540" y="-4940" width="100" height="40" as="geometry" />
        </mxCell>
        <mxCell id="7aczeXKKdlZf4Kcv0Hij-83" style="edgeStyle=orthogonalEdgeStyle;rounded=1;orthogonalLoop=1;jettySize=auto;html=1;entryX=0.5;entryY=0;entryDx=0;entryDy=0;entryPerimeter=0;strokeWidth=3;" parent="WIyWlLk6GJQsqaUBKTNV-1" source="7aczeXKKdlZf4Kcv0Hij-84" target="7aczeXKKdlZf4Kcv0Hij-75" edge="1">
          <mxGeometry relative="1" as="geometry" />
        </mxCell>
        <mxCell id="7aczeXKKdlZf4Kcv0Hij-84" value="ler o numero" style="rounded=1;whiteSpace=wrap;html=1;absoluteArcSize=1;arcSize=14;strokeWidth=2;" parent="WIyWlLk6GJQsqaUBKTNV-1" vertex="1">
          <mxGeometry x="360" y="-5070" width="110" height="40" as="geometry" />
        </mxCell>
        <mxCell id="7aczeXKKdlZf4Kcv0Hij-85" value="&lt;font size=&quot;1&quot;&gt;&lt;b style=&quot;font-size: 17px&quot;&gt;Exercicio_1&lt;/b&gt;&lt;/font&gt;" style="text;html=1;align=center;verticalAlign=middle;resizable=0;points=[];autosize=1;strokeColor=none;fillColor=none;strokeWidth=2;" parent="WIyWlLk6GJQsqaUBKTNV-1" vertex="1">
          <mxGeometry x="365" y="-5398" width="105" height="20" as="geometry" />
        </mxCell>
        <mxCell id="xEgQFAVt9R7-jzGUVJl_-19" value="" style="edgeStyle=orthogonalEdgeStyle;rounded=0;orthogonalLoop=1;jettySize=auto;html=1;strokeWidth=3;" parent="WIyWlLk6GJQsqaUBKTNV-1" source="xEgQFAVt9R7-jzGUVJl_-17" edge="1">
          <mxGeometry relative="1" as="geometry">
            <mxPoint x="190" y="-3270" as="targetPoint" />
          </mxGeometry>
        </mxCell>
        <mxCell id="xEgQFAVt9R7-jzGUVJl_-17" value="Inicio" style="strokeWidth=2;html=1;shape=mxgraph.flowchart.start_1;whiteSpace=wrap;" parent="WIyWlLk6GJQsqaUBKTNV-1" vertex="1">
          <mxGeometry x="140" y="-3360" width="100" height="40" as="geometry" />
        </mxCell>
        <mxCell id="xEgQFAVt9R7-jzGUVJl_-24" value="" style="edgeStyle=orthogonalEdgeStyle;rounded=0;orthogonalLoop=1;jettySize=auto;html=1;strokeWidth=3;" parent="WIyWlLk6GJQsqaUBKTNV-1" source="xEgQFAVt9R7-jzGUVJl_-22" target="xEgQFAVt9R7-jzGUVJl_-23" edge="1">
          <mxGeometry relative="1" as="geometry" />
        </mxCell>
        <mxCell id="xEgQFAVt9R7-jzGUVJl_-22" value="N1, N2" style="html=1;strokeWidth=2;shape=manualInput;whiteSpace=wrap;rounded=1;size=26;arcSize=11;" parent="WIyWlLk6GJQsqaUBKTNV-1" vertex="1">
          <mxGeometry x="140" y="-3260" width="100" height="60" as="geometry" />
        </mxCell>
        <mxCell id="xEgQFAVt9R7-jzGUVJl_-26" value="" style="edgeStyle=orthogonalEdgeStyle;rounded=0;orthogonalLoop=1;jettySize=auto;html=1;strokeWidth=3;" parent="WIyWlLk6GJQsqaUBKTNV-1" source="xEgQFAVt9R7-jzGUVJl_-23" target="xEgQFAVt9R7-jzGUVJl_-25" edge="1">
          <mxGeometry relative="1" as="geometry" />
        </mxCell>
        <mxCell id="xEgQFAVt9R7-jzGUVJl_-23" value="S &amp;lt;- N1 + N2" style="rounded=1;whiteSpace=wrap;html=1;absoluteArcSize=1;arcSize=14;strokeWidth=2;" parent="WIyWlLk6GJQsqaUBKTNV-1" vertex="1">
          <mxGeometry x="140" y="-3150" width="100" height="70" as="geometry" />
        </mxCell>
        <mxCell id="xEgQFAVt9R7-jzGUVJl_-28" value="" style="edgeStyle=orthogonalEdgeStyle;rounded=0;orthogonalLoop=1;jettySize=auto;html=1;strokeWidth=3;" parent="WIyWlLk6GJQsqaUBKTNV-1" source="xEgQFAVt9R7-jzGUVJl_-25" target="xEgQFAVt9R7-jzGUVJl_-27" edge="1">
          <mxGeometry relative="1" as="geometry" />
        </mxCell>
        <mxCell id="Wzc2rEjhIDLnKcr3N48x-104" value="" style="edgeStyle=orthogonalEdgeStyle;rounded=0;orthogonalLoop=1;jettySize=auto;html=1;fontSize=17;strokeWidth=3;" edge="1" parent="WIyWlLk6GJQsqaUBKTNV-1" source="xEgQFAVt9R7-jzGUVJl_-25" target="Wzc2rEjhIDLnKcr3N48x-103">
          <mxGeometry relative="1" as="geometry" />
        </mxCell>
        <mxCell id="xEgQFAVt9R7-jzGUVJl_-25" value="&lt;span lang=&quot;EN-CA&quot; style=&quot;line-height: 12.84px&quot;&gt;A soma&amp;nbsp;&lt;/span&gt;&lt;span lang=&quot;EN-CA&quot; style=&quot;font-size: 11pt ; line-height: 15.6933px ; font-family: &amp;#34;calibri&amp;#34; , sans-serif&quot;&gt;é: +S&lt;/span&gt;" style="strokeWidth=2;html=1;shape=mxgraph.flowchart.document2;whiteSpace=wrap;size=0.25;" parent="WIyWlLk6GJQsqaUBKTNV-1" vertex="1">
          <mxGeometry x="140" y="-3030" width="100" height="60" as="geometry" />
        </mxCell>
        <mxCell id="xEgQFAVt9R7-jzGUVJl_-30" value="" style="edgeStyle=orthogonalEdgeStyle;rounded=0;orthogonalLoop=1;jettySize=auto;html=1;strokeWidth=3;" parent="WIyWlLk6GJQsqaUBKTNV-1" source="xEgQFAVt9R7-jzGUVJl_-27" target="xEgQFAVt9R7-jzGUVJl_-29" edge="1">
          <mxGeometry relative="1" as="geometry" />
        </mxCell>
        <mxCell id="xEgQFAVt9R7-jzGUVJl_-27" value="M &amp;lt;- S * N1" style="rounded=1;whiteSpace=wrap;html=1;absoluteArcSize=1;arcSize=14;strokeWidth=2;" parent="WIyWlLk6GJQsqaUBKTNV-1" vertex="1">
          <mxGeometry x="140" y="-2920" width="100" height="60" as="geometry" />
        </mxCell>
        <mxCell id="xEgQFAVt9R7-jzGUVJl_-35" value="" style="edgeStyle=orthogonalEdgeStyle;rounded=0;orthogonalLoop=1;jettySize=auto;html=1;strokeWidth=3;" parent="WIyWlLk6GJQsqaUBKTNV-1" source="xEgQFAVt9R7-jzGUVJl_-29" target="xEgQFAVt9R7-jzGUVJl_-31" edge="1">
          <mxGeometry relative="1" as="geometry" />
        </mxCell>
        <mxCell id="xEgQFAVt9R7-jzGUVJl_-29" value="&lt;span lang=&quot;EN-CA&quot; style=&quot;font-size: 11.0pt ; line-height: 107% ; font-family: &amp;#34;calibri&amp;#34; , sans-serif&quot;&gt;&lt;span style=&quot;font-size: 11pt&quot;&gt;O produto&amp;nbsp;&lt;/span&gt;é: M&lt;/span&gt;" style="strokeWidth=2;html=1;shape=mxgraph.flowchart.document2;whiteSpace=wrap;size=0.25;" parent="WIyWlLk6GJQsqaUBKTNV-1" vertex="1">
          <mxGeometry x="140" y="-2810" width="100" height="60" as="geometry" />
        </mxCell>
        <mxCell id="xEgQFAVt9R7-jzGUVJl_-31" value="Fim" style="strokeWidth=2;html=1;shape=mxgraph.flowchart.terminator;whiteSpace=wrap;" parent="WIyWlLk6GJQsqaUBKTNV-1" vertex="1">
          <mxGeometry x="140" y="-2690" width="100" height="40" as="geometry" />
        </mxCell>
        <mxCell id="xEgQFAVt9R7-jzGUVJl_-36" value="&lt;b&gt;&lt;font style=&quot;font-size: 17px&quot;&gt;Exercicio_3&lt;/font&gt;&lt;/b&gt;" style="text;html=1;align=center;verticalAlign=middle;resizable=0;points=[];autosize=1;strokeColor=none;fillColor=none;" parent="WIyWlLk6GJQsqaUBKTNV-1" vertex="1">
          <mxGeometry x="135" y="-3400" width="110" height="20" as="geometry" />
        </mxCell>
        <mxCell id="xEgQFAVt9R7-jzGUVJl_-45" value="" style="edgeStyle=orthogonalEdgeStyle;rounded=0;orthogonalLoop=1;jettySize=auto;html=1;strokeWidth=3;" parent="WIyWlLk6GJQsqaUBKTNV-1" source="xEgQFAVt9R7-jzGUVJl_-37" target="xEgQFAVt9R7-jzGUVJl_-38" edge="1">
          <mxGeometry relative="1" as="geometry" />
        </mxCell>
        <mxCell id="xEgQFAVt9R7-jzGUVJl_-37" value="Inicio" style="strokeWidth=2;html=1;shape=mxgraph.flowchart.start_1;whiteSpace=wrap;" parent="WIyWlLk6GJQsqaUBKTNV-1" vertex="1">
          <mxGeometry x="490" y="-3360" width="100" height="50" as="geometry" />
        </mxCell>
        <mxCell id="xEgQFAVt9R7-jzGUVJl_-44" value="" style="edgeStyle=orthogonalEdgeStyle;rounded=0;orthogonalLoop=1;jettySize=auto;html=1;strokeWidth=3;" parent="WIyWlLk6GJQsqaUBKTNV-1" source="xEgQFAVt9R7-jzGUVJl_-38" target="xEgQFAVt9R7-jzGUVJl_-39" edge="1">
          <mxGeometry relative="1" as="geometry" />
        </mxCell>
        <mxCell id="xEgQFAVt9R7-jzGUVJl_-38" value="digite o numero" style="html=1;strokeWidth=2;shape=manualInput;whiteSpace=wrap;rounded=1;size=26;arcSize=11;" parent="WIyWlLk6GJQsqaUBKTNV-1" vertex="1">
          <mxGeometry x="490" y="-3280" width="100" height="60" as="geometry" />
        </mxCell>
        <mxCell id="xEgQFAVt9R7-jzGUVJl_-46" value="" style="edgeStyle=orthogonalEdgeStyle;rounded=0;orthogonalLoop=1;jettySize=auto;html=1;strokeWidth=3;" parent="WIyWlLk6GJQsqaUBKTNV-1" source="xEgQFAVt9R7-jzGUVJl_-39" target="xEgQFAVt9R7-jzGUVJl_-40" edge="1">
          <mxGeometry relative="1" as="geometry" />
        </mxCell>
        <mxCell id="xEgQFAVt9R7-jzGUVJl_-39" value="Ler o numero" style="rounded=1;whiteSpace=wrap;html=1;absoluteArcSize=1;arcSize=14;strokeWidth=2;" parent="WIyWlLk6GJQsqaUBKTNV-1" vertex="1">
          <mxGeometry x="490" y="-3180" width="100" height="50" as="geometry" />
        </mxCell>
        <mxCell id="xEgQFAVt9R7-jzGUVJl_-47" value="" style="edgeStyle=orthogonalEdgeStyle;rounded=0;orthogonalLoop=1;jettySize=auto;html=1;strokeWidth=3;" parent="WIyWlLk6GJQsqaUBKTNV-1" source="xEgQFAVt9R7-jzGUVJl_-40" target="xEgQFAVt9R7-jzGUVJl_-41" edge="1">
          <mxGeometry relative="1" as="geometry" />
        </mxCell>
        <mxCell id="xEgQFAVt9R7-jzGUVJl_-50" value="" style="edgeStyle=orthogonalEdgeStyle;rounded=0;orthogonalLoop=1;jettySize=auto;html=1;strokeWidth=3;" parent="WIyWlLk6GJQsqaUBKTNV-1" source="xEgQFAVt9R7-jzGUVJl_-40" target="xEgQFAVt9R7-jzGUVJl_-42" edge="1">
          <mxGeometry relative="1" as="geometry" />
        </mxCell>
        <mxCell id="xEgQFAVt9R7-jzGUVJl_-40" value="numero &amp;gt; 100" style="strokeWidth=2;html=1;shape=mxgraph.flowchart.decision;whiteSpace=wrap;" parent="WIyWlLk6GJQsqaUBKTNV-1" vertex="1">
          <mxGeometry x="490" y="-3090" width="100" height="100" as="geometry" />
        </mxCell>
        <mxCell id="xEgQFAVt9R7-jzGUVJl_-48" value="" style="edgeStyle=orthogonalEdgeStyle;rounded=0;orthogonalLoop=1;jettySize=auto;html=1;strokeWidth=3;" parent="WIyWlLk6GJQsqaUBKTNV-1" source="xEgQFAVt9R7-jzGUVJl_-41" target="xEgQFAVt9R7-jzGUVJl_-43" edge="1">
          <mxGeometry relative="1" as="geometry" />
        </mxCell>
        <mxCell id="xEgQFAVt9R7-jzGUVJl_-41" value="numero" style="strokeWidth=2;html=1;shape=mxgraph.flowchart.document2;whiteSpace=wrap;size=0.25;" parent="WIyWlLk6GJQsqaUBKTNV-1" vertex="1">
          <mxGeometry x="680" y="-3070" width="110" height="60" as="geometry" />
        </mxCell>
        <mxCell id="xEgQFAVt9R7-jzGUVJl_-49" value="" style="edgeStyle=orthogonalEdgeStyle;rounded=0;orthogonalLoop=1;jettySize=auto;html=1;strokeWidth=3;" parent="WIyWlLk6GJQsqaUBKTNV-1" source="xEgQFAVt9R7-jzGUVJl_-42" target="xEgQFAVt9R7-jzGUVJl_-43" edge="1">
          <mxGeometry relative="1" as="geometry" />
        </mxCell>
        <mxCell id="xEgQFAVt9R7-jzGUVJl_-42" value="&lt;b&gt;&lt;font style=&quot;font-size: 17px&quot;&gt;Zero&lt;/font&gt;&lt;/b&gt;" style="strokeWidth=2;html=1;shape=mxgraph.flowchart.document2;whiteSpace=wrap;size=0.25;" parent="WIyWlLk6GJQsqaUBKTNV-1" vertex="1">
          <mxGeometry x="490" y="-2910" width="100" height="80" as="geometry" />
        </mxCell>
        <mxCell id="xEgQFAVt9R7-jzGUVJl_-43" value="Fim" style="strokeWidth=2;html=1;shape=mxgraph.flowchart.terminator;whiteSpace=wrap;" parent="WIyWlLk6GJQsqaUBKTNV-1" vertex="1">
          <mxGeometry x="650" y="-2880" width="90" height="50" as="geometry" />
        </mxCell>
        <mxCell id="xEgQFAVt9R7-jzGUVJl_-51" value="&lt;span style=&quot;font-size: 19px&quot;&gt;&lt;b&gt;1&lt;/b&gt;&lt;/span&gt;" style="text;html=1;align=center;verticalAlign=middle;resizable=0;points=[];autosize=1;strokeColor=none;fillColor=none;strokeWidth=4;" parent="WIyWlLk6GJQsqaUBKTNV-1" vertex="1">
          <mxGeometry x="605" y="-3070" width="30" height="20" as="geometry" />
        </mxCell>
        <mxCell id="xEgQFAVt9R7-jzGUVJl_-52" value="&lt;b&gt;Exercio_4&lt;/b&gt;" style="text;html=1;align=center;verticalAlign=middle;resizable=0;points=[];autosize=1;strokeColor=none;fillColor=none;fontSize=17;" parent="WIyWlLk6GJQsqaUBKTNV-1" vertex="1">
          <mxGeometry x="480" y="-3405" width="100" height="30" as="geometry" />
        </mxCell>
        <mxCell id="xApCtgJO4M7rXuDMR1TI-2" value="" style="edgeStyle=orthogonalEdgeStyle;rounded=0;orthogonalLoop=1;jettySize=auto;html=1;fontSize=17;strokeWidth=3;" parent="WIyWlLk6GJQsqaUBKTNV-1" source="xApCtgJO4M7rXuDMR1TI-0" target="xApCtgJO4M7rXuDMR1TI-1" edge="1">
          <mxGeometry relative="1" as="geometry" />
        </mxCell>
        <mxCell id="xApCtgJO4M7rXuDMR1TI-0" value="Inicio" style="strokeWidth=2;html=1;shape=mxgraph.flowchart.start_1;whiteSpace=wrap;fontSize=17;" parent="WIyWlLk6GJQsqaUBKTNV-1" vertex="1">
          <mxGeometry x="150" y="-2240" width="100" height="50" as="geometry" />
        </mxCell>
        <mxCell id="xApCtgJO4M7rXuDMR1TI-11" value="" style="edgeStyle=orthogonalEdgeStyle;rounded=0;orthogonalLoop=1;jettySize=auto;html=1;fontSize=17;strokeWidth=3;" parent="WIyWlLk6GJQsqaUBKTNV-1" source="xApCtgJO4M7rXuDMR1TI-1" target="xApCtgJO4M7rXuDMR1TI-3" edge="1">
          <mxGeometry relative="1" as="geometry" />
        </mxCell>
        <mxCell id="xApCtgJO4M7rXuDMR1TI-1" value="codpeca, valorpeca,&lt;br&gt;qtypeca, vtotal" style="html=1;strokeWidth=2;shape=manualInput;whiteSpace=wrap;rounded=1;size=26;arcSize=11;fontSize=17;" parent="WIyWlLk6GJQsqaUBKTNV-1" vertex="1">
          <mxGeometry x="105" y="-2150" width="190" height="80" as="geometry" />
        </mxCell>
        <mxCell id="xApCtgJO4M7rXuDMR1TI-8" value="" style="edgeStyle=orthogonalEdgeStyle;rounded=0;orthogonalLoop=1;jettySize=auto;html=1;fontSize=17;strokeWidth=3;" parent="WIyWlLk6GJQsqaUBKTNV-1" source="xApCtgJO4M7rXuDMR1TI-3" target="xApCtgJO4M7rXuDMR1TI-6" edge="1">
          <mxGeometry relative="1" as="geometry" />
        </mxCell>
        <mxCell id="xApCtgJO4M7rXuDMR1TI-12" value="" style="edgeStyle=orthogonalEdgeStyle;rounded=0;orthogonalLoop=1;jettySize=auto;html=1;fontSize=17;strokeWidth=3;" parent="WIyWlLk6GJQsqaUBKTNV-1" source="xApCtgJO4M7rXuDMR1TI-3" target="xApCtgJO4M7rXuDMR1TI-5" edge="1">
          <mxGeometry relative="1" as="geometry" />
        </mxCell>
        <mxCell id="xApCtgJO4M7rXuDMR1TI-3" value="vtotalpeca &amp;lt;- qtypeca * vpeca" style="rounded=1;whiteSpace=wrap;html=1;absoluteArcSize=1;arcSize=14;strokeWidth=2;fontSize=17;" parent="WIyWlLk6GJQsqaUBKTNV-1" vertex="1">
          <mxGeometry x="70" y="-2010" width="260" height="50" as="geometry" />
        </mxCell>
        <mxCell id="xApCtgJO4M7rXuDMR1TI-10" value="" style="edgeStyle=orthogonalEdgeStyle;rounded=0;orthogonalLoop=1;jettySize=auto;html=1;fontSize=17;strokeWidth=3;" parent="WIyWlLk6GJQsqaUBKTNV-1" source="xApCtgJO4M7rXuDMR1TI-5" target="xApCtgJO4M7rXuDMR1TI-7" edge="1">
          <mxGeometry relative="1" as="geometry" />
        </mxCell>
        <mxCell id="xApCtgJO4M7rXuDMR1TI-5" value="&lt;p class=&quot;MsoNormal&quot;&gt;&lt;span lang=&quot;EN-CA&quot;&gt;O código da peça é: codpeca&amp;nbsp;&lt;/span&gt;&lt;span lang=&quot;EN-CA&quot;&gt;&lt;/span&gt;&lt;/p&gt;" style="strokeWidth=2;html=1;shape=mxgraph.flowchart.document2;whiteSpace=wrap;size=0.25;fontSize=17;" parent="WIyWlLk6GJQsqaUBKTNV-1" vertex="1">
          <mxGeometry x="110" y="-1890" width="135" height="70" as="geometry" />
        </mxCell>
        <mxCell id="xApCtgJO4M7rXuDMR1TI-9" value="" style="edgeStyle=orthogonalEdgeStyle;rounded=0;orthogonalLoop=1;jettySize=auto;html=1;fontSize=17;strokeWidth=3;" parent="WIyWlLk6GJQsqaUBKTNV-1" source="xApCtgJO4M7rXuDMR1TI-6" target="xApCtgJO4M7rXuDMR1TI-7" edge="1">
          <mxGeometry relative="1" as="geometry" />
        </mxCell>
        <mxCell id="xApCtgJO4M7rXuDMR1TI-6" value="O valor total&amp;nbsp;&lt;span lang=&quot;EN-CA&quot; style=&quot;font-size: 11.0pt ; line-height: 107% ; font-family: &amp;#34;calibri&amp;#34; , sans-serif&quot;&gt;é: vtotalpeca&lt;/span&gt;" style="strokeWidth=2;html=1;shape=mxgraph.flowchart.document2;whiteSpace=wrap;size=0.25;fontSize=17;" parent="WIyWlLk6GJQsqaUBKTNV-1" vertex="1">
          <mxGeometry x="445" y="-2015" width="135" height="75" as="geometry" />
        </mxCell>
        <mxCell id="xApCtgJO4M7rXuDMR1TI-7" value="Fim" style="strokeWidth=2;html=1;shape=mxgraph.flowchart.terminator;whiteSpace=wrap;fontSize=17;" parent="WIyWlLk6GJQsqaUBKTNV-1" vertex="1">
          <mxGeometry x="340" y="-1880" width="110" height="50" as="geometry" />
        </mxCell>
        <mxCell id="xApCtgJO4M7rXuDMR1TI-13" value="&lt;b&gt;Exercicio_5&lt;/b&gt;" style="text;html=1;align=center;verticalAlign=middle;resizable=0;points=[];autosize=1;strokeColor=none;fillColor=none;fontSize=17;" parent="WIyWlLk6GJQsqaUBKTNV-1" vertex="1">
          <mxGeometry x="150" y="-2285" width="110" height="30" as="geometry" />
        </mxCell>
        <mxCell id="xApCtgJO4M7rXuDMR1TI-16" value="" style="shape=image;verticalLabelPosition=bottom;labelBackgroundColor=#ffffff;verticalAlign=top;aspect=fixed;imageAspect=0;image=data:image/png,iVBORw0KGgoAAAANSUhEUgAAAHgAAAB3CAYAAADIMoQHAAAgAElEQVR4AdR9BZhU9fo/V0VCxRalcylREfPqtRVEUVGxvSqCCEoJCqikgHRssmzvzuZsd3d3d3fvztZsf/7P+55zZgeYAYR779/fPM93Z3ZOzMz5nLdrFP6PP/q7utBVUYm2nDw0J6egMSoGVZ6+KLV3RKGJBXINLiBHzxDpZ/WQdloXaWf0+HWWrgFy9M+j4II5SmQOqHT3Qn1IGJoTk9GenYvOsnL0d3RieHj4//QVGvV/6dsP9fejs7IKzSlpqA0KRaWLBypcPFAod0WWgxwJtvaIdHVDuJc3wnx84O/pCW8PT7i6uUHu6goHZ2fYy+VwcnGBq6sr3Fxc4ePmhhBvHz4m3NkF0dY2SJPZIc9BjjJnd1S5eaLWLxBNyanoKC3DoLL3/9Ilw98e4MHeXjRnZKHKLxCVzm6o8wlAkacPYp1dEeDkDBdbO9g7OELu7gZXT094ensjOCQEcfHxSE1LQ35+PopLSlBZWYmqqirVKisrQ0FhITKzspCQlISwiAh4+/jA3dsLLh4esHdwgL21Dbzt7BFp74gsuRuqvfxQ5eqBah9/NKWkob+z828P9t8W4M7KapQ6u6HQxJwvaH5QMKJ8/WB2wQTnjY3hKJcjMDgY+QUFqK2tRXd393/sYvf396OpqQmlpWWIiYuFu6cnrGW2MNDXh5eDI7L8g1Du5YtiK1uUOMjRXlQM/E1Z+d8K4IHubjQmp6LMwRkF5tbI9fRGdGAQnFxdYWRsDCcnJ2RlZUHRrviPgXmtJxoYGEBJaSn8AwL4u1jb28PPwwNp7l7IM7dGmb0TGmMT0KfouNZT/k/2+1sArGxuQXVwGCocnVHq5oE4Lx+4e3jA2s6OnwlUoqq/06OyohIhoaGwtrWFg5McQU5yZDs4ocxRjprAEHTV1P4tvu7/V4B7FQpU+geizM4J5QFBCPH0gqWNDewcHZGalvofZbv/ras9NDSE4qIiePn4wszSCm62dsj29Ea5vRMq3L3QXVf/3/roazrv/xeAhwYHUR0ShkIzS1SGhSPEPwCG543h4uaK8vLya/rif8ed2tvaEBERAV0DA9haWqEoIBilljJUePn+f9O+/+cAt+bmodDMihWo5OgYGJubQyaToa6u7sYw6xtAf30jn2Ootxfh587DdvtumK/fjDOfr4H9/kPoa2xGiLk1flj9CX798hsc/fJbHPtqHZpKylSf3d3UjIa0TPTWN6ne+6svlEolAgMDoW9kBB9PT+SJyiJp3v/rx/8M4N7WVpS7eaLcXo6skDDYOTnB2sYGJcXF1/ebh9QcEP0DOLluI96bsxB16VnA0DAsd+/FnJvHQPezNfA/rYf5o8fht6/XIsfTF5NuGo3vHn0KBx5+Gt/MeRjRtg6q71CfnI7vHpqD7xY+jvSgUAx2diHFwwdV6VlQKv6actehUMDT0xOmVlYI8/BEocwe5U4u6KqpUX3ef/vF/wTghuRUFFvYoDIkDK4uLjA2NUVGevpf+21DQ2jKL0TYeXMc/+Tf+Orp52G29yDQo0RbXT0+nq6DR0aPw2dPPwf09aGtogo6N42Fn6klf863L72OJ+fNR3VsIh6590Gse/xZ7HrxdVQFhKImMUX1XYa6e/DlwiX45613wGj7Trjs3It/jb4DL02cirhjZxF+zggJHt7obrx2Cq+uroaDkxPMzM2R5uGFMpk96iKjVZ/533zxXwWYZG2Zmycq7OXIiI7B6XO68PXz+0sacV9rG3Kd3BG5fQ9ee3AqXr1/MmKMLXBs7QZMv/lW+F4wR5q7N5Y9NB3rH3kCE28aDdPf96M3PRcP3zIOB776FkHGZnhy3J0w2rELKdb2mHbzrdjz4jKYvLEKny9aAu9zhqpr3FJcijWPP4ON77yPNyZOxfbFT2HJ7Xdh3WvL0V/fhM2vr8CSsROw96Vl0N+wBXUpGapjr/YiPT0dZ/X0EODphTJnNxRZ2YBMw//m478GcHd9PQrNrVDh6YuQkBCc09VFfl7etf8WZR/yXD3x7gwdvPPgdDTGJmHvt+uxeNwEYHAY6OrBY7eMx8kft+Hkuh/w0dxFKPfwxwfTdbB0wr2wWvkpvv/nS/j+pTdw4P1P4aNrBPT0IsrUGgfXfIdT32/CoX+vxb6PPkdbeaXwvQYHYb55B1Y9MA3HXn+HWbzZ52sx+5YxCLCw4n3eWLgYr0+fA7OPvsKK2+7FH6+8hTgHZ7gcP42Blrar/r7Ozk7YyGxhQ9q2qzv7yzvUdICrnuAv7vBfAbg5PROFphYoi4qBnVwOB0dHdHV1XdNXy/QLwpFvvsOml15HTUgkDn65BvPvuAvd9Q2oTMvApH+MhuXO32G7ex9WTpmFDGd3nNr8E85v2ILuolLkhoSjLDYezYUlzKoxNHRNn8s7DQ6iICwKEfZyhB86Cfe9h3D2k6/w2OjbEHLGABGGJpg2eiy2/us17Hx1BcoDwxG+/yj2L38H3z/5PD5evBQ2+w6hKTPnqp8ZHRWNcwaGiPP0QrGJJeqiYq96zPXs8B8HuCY8CkUXLJATGw+DCxcQE33tssb91FlsfeRpGK79Ad9OnoPw0wZoySvEojvuxqF136PUyx8v3PcQPp/3CEw3bEVlsqiVDgxcz2+/pmMUFVXIDY1Alps3dD9dg5cnTsXhtz9gDfzEh1+gJT0b6O+H7OARTLnpVqxf/AQ+njIH6FJe9fykYBqZmMLH2QVlto6o9A+66jF/dYf/KMAVFBBwdEZCdDROnz2LoqKiq36fjqoa5AaFQdnUgvUvv4G5t47DKp1FeG2WDqaPvwPhesb4ZOFjWPbQDMQdO4fSiGh0t7Re9bz/lR2Gh9FWWo5QE0v8/PIynPxqHWvZitJyPD9lBr5/6120ZOTg7HufIlrfBKbbdiLC2o5vAG3fhzibhaUlZNY2HL2iCNZ/8vEfA7gqIAgVbp6IDI+AodF5NDddRcscGkK0qTU2P/0iJo0Zh6OffY2q6Hhse/MdyLbvhuuufXhz4jQk2MuR6+4DCj78HR8DTS3Y/8pbmHfzWAQaGPNXjLV2wNSbbsVzd92Pn5/4F46++zHaK0Q5r+VH2Ns7wMZGhkJnV5Q6yDE8OKhlz7/29n8E4FJnD1S6eiEwKBBmZuYgReJKj+r0TGx54y18t/hJxBia4YUHJkPv241Aeyd++dfr+GzRYzj92dfI9PC50mm0bmtpaWHuQVprTEwMK3m+vr7w8PDgOLCLiwu/9vHx4W20T1paGgoLCzmKpPXEGjYMDw6hNr8QTvsOIdPFk/fY8tpbmDr+drTlFQBDwI6338fPy1ZiuLdPwxlG3iILw8LaGnlOriixl4Pi3zf6uGGAy738UOPpCz8/f1hZW13Vf9xRXYMYQ1O8MmUmlj4wCYeWvYtnJk/Hs3fdj21PvYCAX/YhLzQCGLj2O5jsTALJ1tYWZmZm7BmTy+WwkcngYmuLIC8vRAUEICYoCPGBQYgPCEKMnz+/F+LtDTd7B9jKbCGzt4ednR1MTU35XJGRkaioqLj2aywqdO6ndPHihPvQ2yBwsR9XrcYjo8dDkZoFx227UZ+dq/WcUVFRsLKxQZGbF4qs7W6Ykm8I4ApvX9R6+SEwJAQmpqbo79N+hw53dUN/w2a8PXU2wvRN0JpXiIV334f35y9G1El9uB49hSATCwxf4RzqV4Vcm15eXjh79iz09PTg4OCAuLAw5EZEoyo8Fi0xiWiNTkRbTCIU8anoSM5AZ2omOtMy0ZWWxf8rktKhSEhBe2wyWqITedVGxyM3MgZxIaFwdHCEvr4+zp07Bzc3N9CNdE2PgQFYb/kZm554Hl8//zIe+sdo7Pv8K/QVlODhcRPw4n0PIdvbX+upyJ9taGyMct8AlDq63FDa0HUDXBsVw+G96KgoGBgYordXeypLQ1Epjq/+AptmL8bJt1ejJDoOFRExOPXtBiy4eSz8j5zS+mPVN9BnJCYmwsrKCqdPn4bMxgbpoeFoSc1ET1o2FLFJUKRkojO/CD3V1ehracFgVyeG+pS8hvt7MTQgLnrN7/dgoKsTfS3NfExHQREUKRloj0lEd2omWtMykR0RBSdbW5w6dQrm5uaIi4tDT0+P+lfT+DrBxQN/fLUWVr8fRG9pJba/vxqTbx0Lq59/w/anX0KsnVzjcfSmn58fTMzMUeTgjOqA69eurwvg1uxcFJtZIy48gin3StkUitwCfLVgCWbePAbHVq7GD088B5+jp/D1o08i7sx5ZHr6av2R0gbSNIODg5lSLSwsEOfvj8akdHQlpaMzLQtdhcXobWrCYE8Xhgf7MNyvxFBPFwa7OzDYqcBgZxsGO9owoFBb9H+H8P5gZzsGuxQY6qGboQfDg70Y6ulGb1MjOguK0JGaCWVyBlqS05EUGAL6DkTZBEJr69U1+uGGFvz66go8eNNoOJ88yz/LbPdevDF1FpRXSF5wdnaBjbU1Ci1lqIuKkS7HX3r+ywD3NDSgyMwa2bFx0DMwQHNzs9YPTPULxNlVnyHwpC6enD4LOuPugMe23dgwZzFOfvM9e5a0HgyAsii8vb2hq6vLLDInOAztccnoSs1EV1EJ+tpaMdSvZEAHuzsZyAFFKwbaWzDQ1ox+Xk3ob6XVeNkaoPfaxO303NbMx9E56IZg0Pt6MNTbjf62VnQWlaAjJZPZelFkDFzkzvzdSHm7EkUPDwwiUuaAz3UWw27XHiR7eGP5osew6MFJaEhOh8+eQxjo0KyYkg/b00mOInMrtBf+9cDMXwJ4eHAABaYWqEpIgrGZGYqKCrXi01NTjw/un4oPljzJ++QGhmDGmPH41533w+foGWDgyh6mjIwMHDx4kGVreXIy2iLi0JGagd6GRgz1KjHc18MUSlQ4oJAAbUJ/SyP6WxrQ31zPq6+pHn1NdehrrNW8mmqF7U3C/nwcnYPBVwOcKLyvG4PKLijr65iq28JjUZ2cBie5HEeOHEFSUpLW60EbFKUVOP7xv/HkhHswf/wEBJtYoiosBjo3j8XWFe+iV4Ork0KPF8zNEeHuiaIL5ui7AsVr+vC/BHCFhw8qvf1h42CPiIhITefj98rColAbFo3ikAisnrcYVTl5QF8/jr65CqFWMq3H0QZix6QwHT9+HNkJCehJzUFLdAKU9Q0YHuzHkLKb2e5Ae6tApUSdBEizAGRvYy16G2rQ21ANZT2tKmHVVUKpadVXjuxTXy0c21iD3sY60M2hApyomziDoo1Z+fBAL3obG9ASHY/upHTkxyfh2IkTrB8orhJWrEvLQHVIJKpjEvH0lBmYf899sNi4Fc3JmiNspNydNTRAppsHCq1s/lKC3zUD3JCUghIrGUJDw0BGubZHfnQsHh17B758+l/I9A3ExiXPQH7qHIaHhtBTc+Wgfk5ODitPZKc2J6VBEZOErrJyDPX3MbBMre2tAuttbUQfgyoBWgNlXRWUtZVQ1lZAWVMurOoyKKtKVau3phy01N9T0j60+JgKKOtoCcALN0sNUzlzBrqhGOxW5iAEdFd5Odpjk9CemgkvV1ecPHnyqtSc7+qNp8bcgfl33oOqxBS0FpVi2+tvwfK3/RhSXu7mTEtNhamlBYocnFAdHKrt8l/2/jUBTElxBefNUJCWjnN6+ujWEjhQ5BXB9IMv8fVzL2LpvRMx5+axWHDLOBz9fM1lH3zpG+7u7gxuZnw8OuJT0JGdh8Hubgz392Cwox0CxZK8FNivQKnVIqgVAqgSmJUlUFYWQ1lRpFo95YVQVhWjPSMFdSHBvJ3fo/fV9lPSsXRDMOBlwnnphqmvYuomdt/f3MDfg+Q8yerh3m6QDqDIyoEiKgFFSanQ1dcH2eKUs6XpMdDdA70du2CxfjMKQyKx55UVWDR6PGvX8t8PajqEnTSebu6cBqQoHclC0biz+OY1AVzsIEddbALO6uuhsKBA4/m6mlvwwzMvwnPvYd7e3dCIaCcXmO7YjeKYeI3H0JukSBkbG8PQ0BAN6ZloC4+Dsq4OwwN9GOzpBCtNpCyRTJTYcINErUSpRH1EoSVQVhRDWV4EAq6nrAA9pbTy0VOSx6uvtgwlNrbIPnkWvdUl6Bbf5+20H+1Px6lALxbOS+cn6q6tRK860CTr25qYdbNC1q9ET20tWkKj0ZqWzV4p0ra1mpDDQGtiGl6bcD8OP/saPnviWZht3IYvFi5BqIXNZdesv68fp86dQ7yHJ0pt7DF0Dc6gqwLclJ6JSkcXuLm6wc3N9bIPld5w+elXtmkfvv9BJMvdgau45eg4UiCMjIxgb2+Pnqw8tMYkor+zg7VigR23MLAkC0kmCnJVZMFEZZXF6KkgQAVgCLDu4lx0F+WguzCbV1dhFroKstBTlI2+qiJErd+CpN37MFBTAmVRDm+j7bSfcEyOcI7iPHSX5KsA76Gbh6ibKJspupK/Ty8pcAR0qwA06wjdnWiOTkB3Ri68PT3ZUdLRoSVfenAQ1j//huMrP4L5rj1YMX0OvpwxH14nz2mUtZSUqGdkhAIHZ9RFXt10uiLAA8oeFFvJkBURycne/f2aPVXRRuZIPGWEbE9fvDRnPmdMHHzlTXRIgXTpLlB7ph984cIFkD9YEZ+C1qR0ptohZZdgrxLVtjSw7CM5yMpSbblwgatK0EOUylSaz5TIwDKoAqBd+ZnglZeBrrx0KEty0RQeCutpjyH51/3oLs1FXXIsevJpu7ikYwoIbFoi2ETpKsqWqFoAurehCiQuSB8gLjPQRs6VDgz19qCNbPSUTASIph5VS2h8DAzC6Mu1+HTmAiy+ZRxSjulCtnEbvnruJdRnX54k4e3rC3d7B5RY2aKnSbuZSp91RYBrI6JQ4evPyd3Z2dkav1tpdDyeGX07jq7/kbe3ZObitTvvh+OR4xrvQNqJbEZyMZKjoC06AR3slB/AYLeCZS3bpipwq0WliZQlYsMCC+4uzR+hVqLAAgI0A125GejKSUNXdio6s1N4deWkQlmcg4i1m2By00Mo+PMk3C2NYXRoH4ZL8tCZlXzRvl25aQLoBHhBJroJcOIKDHT+CAsnLkKsu06gZpbPzLabQc6Tof4etOfkoSshDREhITh8+DAoEKLpQSaS9f7DsDtwhMOLZYkpOPD2Bzj07kdsgagfQ5bG+QsmSHVyQbVvgPqmy15rBbi/swsl1naIDw3jFJPLjqQ3BoeQctoItp+vw6u33YNNb65EfVIaKsKitIJL5ZgS5baEREORnYfhoX52KpAZQqyOqIGVKDJx6ALShawoFmRraYEAbGG2wF4JhLx0BrWTQM1KQWdmMjozk9CZkcirryQHeXoGML1jFsxGT0Hx8dM4e+B3HNzyI1Ccg870BNW+fBwBTufJToUAdroANFF1UY4g04miSTkjZU5k2ySfyd5mJYwUsM52VhI7i4rRGZ+KqPBw/Pnnn1eNttF1bc7IxSdPPovpN92KUCPTyy5/YmISbK1tUGQpQ3etdutEK8DVIeEo8fKFmZUVKrQko9Pd9ubE6fhg5gI8M3YCp6Oe+OLby76M+hsmJiZwdHREN3mEMnMvAbeRbU9myWSmELiVJeipEJQmlrGS3CS2mpvOIDAFEqgZSehIT4AiLR6K1DgoUmLRU5COShcn2Ex5BGa3ToXpmKko/PME9P/Yi8PbNmE4PwPtybFoT4kVjkmN53N0pNPNkSTcLAQ4cQX6zPzMEfYtsm7WwiVqridqrhWcLaSAKdqAwT6uOe5OSIWHqyu7XEm51PRozs7D4eXvQuf2uzDp1rE4/u+1+O7JfyIn/GK/Ax1vKZMhxs4B5S7akwQ0AtynUHAyWGxYOMgfqulRlZCCJ2+7CwtuGYt9b70PtxNn4XjwT5Snac8yJJcehfM6M3LQnpaJIdKUJbZMdm0TKVKkIauBSxrxRVRLFJsxAiyBmpEoAJsax0C1J8egPSkG3TkpqPPzguOi55hyTcZPFwA+fAx6B37HoS0/YjgnFe2JUWhPjEZ7Eq0YEfA4BpxuGDo/c4WsFIH9E9Asp7NFtl0gmFqkhDHLFuQyO0lI+epow9CAEm2pGehISleFMzVd12FlH+ehLR07AcUhkRhsaMbHsxci2vFyHNIzMuBgZ488Y3OtCREaAa7w9kO5jx+ogq6q8vJMhMGubkTvP84ZGfs//hwrZszF/ndXoyZWu6suNTUVZ86cQWNaJtoTUtl5QcEAMoNI5jJb1ghuvqgVZwlKU26aAK7IgjvSEhgIokABoGgGrDM9Hs1hAXB/7k0VuCbjpsNk7DRm0ef27sahzRsxlJmE9rhwYcVHoD0hcuQ8dKOIlE2fQ+y7KyuZ5TtxD4GaCeRcQQmrKBQ0bQKZzCli1y316G+X2LUSrXHJaIxPwTk9PY5hawK5vboWsbpCdghtr45O0LQbKC2ZqDjByRWl9pffAHTQZQBTS4TCCxZIiYvjoLemM/ufN8W2Jf8EFIKDnDIav3n4cSjb2jXtzorF0aNHkZ+SgtawGAwqe9inK4FLd3pvY82Is4LMH6ZcApdkrahA5ZCMFeRrh8iGBWoVQGVw4sKhSIyEIiECAe9+BpPRk0GUy0sEuOTYSZzb8wsO/fg9htLi0RYdIqyYULTFUkAjHO0S2ETdRNnJsehg9k3UnMQympU5iWUX5wg2NztUREqWQCbHCMnkLgU7REixLE1MwR9//IHGRqHcRtOFy3JwRUV8EmqyclEUm4DqxFQhU1Rt58TEBNjb2aPYwlqjLL4M4JqISNQEBsPazl5zHnP/AE5//G+8MGk63p6pg0R3L3SWV6EhLUvtYy9+SfFbXzKHohPQ29jE2uWgok2I8hC4EuVWlUFZSeZPoWD6kCJFSlROuqg8JaEzPRGK1HhcBGx8BAPTRgDFhKIzJRpJO3+D6ZgpMCVQ1QEeNw3FR0/g7O4dOLTxOwwmxaA1LBCtEUFojQxCa1TwCNgS4AQ2Aa2i6Hj+HsS2SVtnJU9i2cWilq1i15UCJTc3sO98qLcLyoZ6dMYmI9QvAOfPn7/4Ykn/DQMGX32HV8ZMwL9G34537p+Cp0ffBo/TetIe/Dw4MAB9Y2NkeXij0tvvom30z0UAU6JXscweOXHx7F26bG8A5cERqAoIQ1tlNY6s/R7vTJ4F0ri1PYg1049oTkhGZ24BBwzI9djf1sKKCLExtnGrSaESKbc4X3BSEOWSIsWasahAkZylC00XPD4SbXHhDCoBS+Ao4sNR6WgHm+mPwXzMNJiNnwGz8dN5mY8TnmsMjKC7ewcOb/wOAwmRaAvzR3t4ANrDA9EeEQRFdCgU6lRNQBNVS+w7OQaKlDiW+yMgS3JZpGRi16R4ke1OQYzGOsFOVrRyzFmRk4eejBzoGxggNFSzb7k2rwB2P+2G8897sGXRE3jwpltwftvOyy411Sk72chQbud0GRYXAUytCKrdPOHo5ITYmMsTsQc6u7Dm0Sch33+EP6SloAhrdB5Bl5Y6HXLRkeM9IzKSnRmDfb1CiI/NoUb0kXdKMoVIWy6/hHIZXEE7VqQnCAoUscvEqBFgo0MY2NbIYLRGBKI9JhTR321ijfnC+OkwHDdNtYzGToXJAwtQa2eD49t+xNmfNgPJ0WgK8ka1jxuqfd1Q4+uOGj8P1Ph7ojnUH20SVV9KzUnRrKWztk0sOztFpORMwZQqzRcULwa5Ar311axnkP96oKOdRVRLZByq0jLZdGpr01wV0VNWCce1mzlhYtm8RVCKeV7qKFOSo56hEfLlLmhKGqmzon0uArjU3RNl4REcyO/VENEINbbAnJvG4J5/3IyPnnkeqxc9BpMtP6t/1kWvyZFhbW2NrvhUKGvrMNTfy855dmQwa6ZgQQX7ktkUIucFORTIcUFKDDkqMpPY7FEpUURFEtUSuARAeCBaQv3RGh6ARn9PuDz2EszGTMWno+/GP2++Dc+L64V/jMeyydPx9dsr8Ph8Hby8dAl+/uJTfLfqHXy+/HV8vvwNfLH8DXy27HUc3/IDmoL9mKrp/HQDsQggGa3GsskcE0AeYdfsBSsWFC82ochOrqsUbORWYtUtII9dT20dOmOS4OXhydfpoosn/tNdXYeXJ03HxJtHI1MDC5aOcXZ1RaCNLaouMZlUAFMRVIWjCyJ8/bjtkHSg+nOkkRlC9Iyx56s1mDvuDmxethJ9rZoVK7qrjh07hoqkFA6ODw2IzgxyQTY3sFxic4h+PHmnyBRiG1eNLWckCRoymz3RfGFJCWJ2TMCGEbB+aA3zQ7GxEZqDvFFy4Tws7puHC+Om4cS4yTgmrhNjJuH0AzqIOnoEpe6OWPPWm/jxg/dQ4GCNFIsLSLMyQTota1OkWZuhxNUBrSE+aA72RUuIL1rD/FlOt0WFoC1WVMZElk32NplTbEoxJWcItrIEsuQMqa9UhR3JqUP2cUt8MppSM9nC0JbUZ/XrPhx+5yN1KC57XVBQACszMy5PVe8qoAK4JScX1d5+3D7oWorEukorLnOhqX8q9aFih0ZCKvqaWzjthfOiyFPVVCfIXcmRQayZggQUGCAbkzxSmcl80VSUKylSJBujgtESFsDgEgBEuam/7kW13A5Zhw/jwtipMB0/HebjZ8Bi/AxYjp0O67t1kL3vIDqCvIHIYPz08Wrs/eZLDJNS5echrAAvtAV6oT3IGy0Bnmjy90BzoDeag3zQHOKLFgI5PJA/nzVvomZR+SKZTAogy2RyipCLk3zjJcSqSR6XsJVACiVZDRxq7O5AX2sLR9CoywEFXTQ9umvq0JajOYon7U89TCinOt1Bjqb4EXNVBTBl7hUEBsHc0lJ7eEs621WeiXopI6MiMQXtKRkYHhpgtx3FdPuIelVas+hbZuqVNOY0EdxEVmTYRCFKYcoVwGXKDfFDc7APU21beABiN25FoaE+cg4dYWeGpDmbjZ0G8ztnI+3XPWgN8ECjhxP6gnywdfUq/P7lZ+gN8kaDu5OwPORo8HJBg7crGn3c0OjrhiY/DzQHeDLIRMmCKBBBjgkVTCoJ5GXz8RgAACAASURBVNR4weVJDhESMaIPmwIVKlbNplMdZ6GQmUgJgoqMLNTEJsLAwAD19dff08PL15fZdLVaIiMDTNpzhYs7EgKD4Oau3e11FVxVmykDkqk3MZ2zHSlpjTMa25pHqJe0ZvIvlwm+ZQ7ZqZQqMoVEbZm0XJEtE+UK8lYEN9CbAWgL90fEF2uRvmc/sg4dhskYgYLJRLK8WwdZ+w+i1c8DDS6OqJfbo9fPE1s+eBe/ff4plP6eqHdxQL2rAxrcHNHg5oQGAtrTWQDal4B2RxMpXUE+zK6vBHJHapxgJ0usmkAmVl1eoEbFIwoX2caU3ksmpJuzM6gC43ofWdnZsDQ2RoWzm6pJGwNMLX8q3bzgZO8AMmtu5EHBBPJY5cTFoS02GRgeGgkktIjUS/HUqlJRaxZNInY/CkoVOTEkU4jBvYwt+6A5wAuNfu5MZa2hvgj/dA2C3/scucePsfxl+3fsNMT/sJXBrXeyRZ2DjJfS2w1bVr2D3z77GD3ebqhzsgVtJ/AvApsoWwLaj0AWWLZAyX4j7JoomRQvySEiyuMRR4jEqouEBAWKPklmU7tAxR1pmciPiOZ0XK0JAlcBhjRxaouRZW2L9nyBpTPAzWkZKPHwho2dHWpvsBkKCXtKDm+JSkB3eSUo2Zx8sf1tQg4VJ8KxYlUsKla5gqeKXJBZgtwlpYUvFsldMk8kymW27MtyUQKX2GlrkDcDLF/0HEqNDGE9aTEsxkyD25Ovos5Rhga5HWrtrVFrJ6weDxdseWclfvvkI3R7uqDO3gZ1Dja8L4Mtd2CgmaIJZA+JmkVKJrlMyhdp7hFBgmOE5LGkdBEVU6CCqFhi1cW5ULKXi2zjChZTJK7IoiCNuruyGm0JqRxpy8zMvAqU2jc7u7khysIGjWIWDQNc4x+ETG9f7iinLYdI+ykv3kIlHoF+fuiIS8Fgr1JIu6FEOaJecmqQWUS2YUWRmreKggcpfFFUXiqJNZMpFBHICk5LsAAuURLJRwKXLn5rgCci/72OKTf/xAl4PrccFrdOQ9z6zWh0dUStjRVqeFmixtoS3S5ybF65Er9+tBpdrs6olVmh1taKbwIBaKJoO4Ga3RzQ4O7IlCzIZYlde4vadQCbanwjkjNElMeC75qiUKmiz1pwgAjhxXIh9Yfyu1obMdjVjoGuDnQlZyDQ3ZPF28VX9dr/Cw0Lg5+NjJu00lEMMHV+ifX1g5u7x7WfScOepMlRrDc/JgadWbnA8KCQ4ip5rUi5IvYsOTWKR2xe8laRqXGR1kzeKXJgkMZM1EvabIAnGkmeMrhyVo5a/D0Q9fV3ML1lCsI//QbJW7bD/NapSN66A41ye9RYWaDG0ly1OuWO2Lzybfy6+kN0yR0ZdAJeAlqgaNkIyCSfiZK9XATly8+dRQQpeWymkWZNYkRFxTGsQ6h81nkZbNtT7hcrW3SDS2y6pYEDLsN9pGzloDI+GYZGRtet6FLzVUcLSxTbyzmTdRR1c61wckWAhyfiEzRHLTRgqfEt6uhqaWnJOdG9dfWgL83subWJZY7gkhTsXjIfyIxgXzObRaLNS3JMnXrDR8BtYnDd0eBDlEvgOqLJzRFd/l6I/mo9gyqb+ijyjvwJB52n4L/sfdTby1BtboYqUxNUmQirw94Om1eswK/vvw96XWVmimoLM9RYmaPG2oIpvtbOSmTbRM32qHd1RIOHIJOZkkkmB3hdzKolb9dFVJwkhBgpKEHJAmUUcSrmsCJ5t3qbyGQix0cneiqr0JGcyXlq11I8rwkEKsqzk9ki19oWPfUNGNVVVY0SJxfWnrVlTGo6kab3qCqO2iS1E3vu6uIEcY4YtTRyEFxwbJSyLKLgfVdBthjbTWEb8lLqFexdf2aFZI8S5TJrJlPGzQmNbo4otbNGgpUp4r5eD8vRU0BmUcCK1Ujb8SusHlqIlJ92ok5mg0rjC6qlsLHFphUrsHvV++iQ2aLqgolwA5iZosbSTKBoGyuW2SqW7Sxq2XRjkRlF2jUpXaRZk7NFso9J4SJZnByDjjRJFlNAIoMjY+omE2doNtZhoFUIJ/Yr2tCdnAkPZxf4+2uvPtR07aX3SEFzcnNDqpUMioJCjGrLy0ehiyscXV25La+04/U8U0A/xNMT3Vl5oDIXMgHIY6OyfSX2rDKNyGs1olxJmjO7IkU3JF08YoUS9TYS9ZJm6+aIbl93nN+1A88/+wz0Pv0Shx5aAAsK6t82A9FfrkPstz/AdsZjSN26E/WWVqgyPI9KfSMozK2wafmb2PXeKigsbVB5XgCfKdxUBJnYujrIcjvBlBI1a4mKmwO9BNMpjGSx4M5sjxM0aiEgkSiEFknZKsxCDzs+igQ9hNl0jSCHKQih7ObapwT/IK6QuB4M6BhXL0+EGpxHa2oaRjUnpyLX2RVyd3dOY73ek/b19XHhNHW56cot5KgROdXJY8NprxRUoMgK2b6iz1kIBZLXKglsGlE2hcSeWXMm9kyKlRfboSrqdXdi5anO3QWHf9yIsRPuwKevvYFz858W0nIoPHjbDAS//QkiP14Dh7lPIX7Nj6g1NkWVnhHaTSyw6Y3l2PXOe1BQv0x9I1QanBeAvnCBWXYNs2xLkV1bo87RFvXO9mhgVi04RMg+ZifIpbJYUrbIhUmJApQkwN6tLPQU57F5yJ6tOtKmq1kBJUJgp0d2LspjEm7IXPLy8UGorT0awiIxqj4iCunevnBxc7uhQmOywUjBqomOR29NHdfeknODzADKHVZSDRAlqatrz5Ltm5GE9pQ4wTQSAwkURCB3JHurRJuXFStPZzS6OaHJ2QEJlub49MMPMG/xYmxd9SHMKDXn/gUwEV2VZuOmw27GUtjNWgqT8dMQ9eEaVJ4zQruROTa9ugy73n4X7efNUXHWAJW6hgLQRsaoIpBNTVTsmpQvYtWSZs0KF30P8naRp4tcm+zKDBDiyZKyRWFFNcdHt0oOk2eL5DBFmapUUSZyCHUWl0KRls2+BOpKfz0PKi+K9PFFjbc/RtX4BSEpOBQurtqT2q/lQ6hdPtXNNsUmob+lhWOeQsZG48WBBcrUKM5ldsU2IsV60xMF7VkKA7JpFCT4moN8ROp1F7RYkoFujki0sYDJ8WNYv2EDvv/xR+zcsBFGr74Dq8dfZYBVrkpi2WI82HT8NMR/sREdhpbY9PIy7FzxLtr0TVFxSg8VZ/RRoWuASgMjltUsl81NRcVLlMcSFZPHS5LFKo1a9FVHBrHtLjk+2EedQak+FE4kOSyaSwywkNrDOdWc8dGBvuYm9GbmwdDAAFSrdT2P5NRU+MidedjIqApnd8QFh8Db+/oankhfgEonqSqQksoGFAoOLpDvmew8wf6tFEpMJIA5JKgmf8m5IbFnAphDgGQaebMyw+zZ0wVN7k6okNshx8kO9kaG2Lh2Lbb+8AN2HjyAC6u/hOWdc0YyOKRMDvHZfPx02M9YioaDutj8ynLsXLYSbWdNUX5MVwCZKFnPEJVGxgLI6lRsR2xahnq5neDSlMwmcmOSr1pi0+T4kHzUZBEQm6akPRXA2SNymDiaFGFqbRJMyg4FetNzYGtljfDwcOny/qXn/MJC2FtZI9fIBKNKbOwRExyCoODgq57kSk4Qap/r4eYGZWYeF41Rhb2Q50wAi/Yv2X8UOSoSKThHDCykJQiuSQlgkr9s+wryl+1eHzeVclXvYo92dznc9fWwd+1arP3sMxifPInAU6chn/8szMdO0wgyUTJRdtH3v2Hra29h52tvo/WEMcqPnBVAPq2PinNExYI8JqWr2oKo2AK1MmvNbJoCEpKfWtKmo0OEIIQEsBRlyk1n07CnWEwGkOLE7PAggAWHR0dCKkJ9fDn78qqgaNihsqoKVuaWyNIzxCiqHI8JCb1ivW9xcTG2b92GVe+8ix3bfkJZaellp6VKfB8PDyhzCjHEmRudgoJ1kf+5RAguiHFf8vKoFCyK+RLAkmsyTDCPyNZkt6Tk2CD26OKABkcZ4i6cR5yRARz+PII0I0M029oidfMvML9zDig9R2LT0jMBTCvzsx9HAP7zPMoOnEH5n2dRfkKXWTVTsaExKiWFy9KMla06e2vBZ02fT9+D5LDKXBI9W+EBI04PtodFRYuyPnLThBAiBx+klJ5K9DbVipp0G7ehUCSmITk8ku3hSy+0i5MTPvrgQ3z60cdwc3XVqDfRkBKZrS0yz+pjVMEFM0SHhyM6RnPLwbbWVgZWZ9YszJ0prNXvf4BLU0zIRenr5obe/GIhJbarkzMJqTCLw4McYFADOD9Tlf5K2YqC71kAWPBeqQHs645GNYApKEBKT4vcAXkXjBF46CDqzExRdd4ENSZmiP/mB9hMXASzcdNAbJmWRL0UhMj4aIMawMYo23cGZYfPovy4LipO6wsKF1GxMWnUJqhmgC1BAAva9IhNfKmiRZynlZMCpFjxtQPMxeW9PZwgkRkVcxnAjvYOmD1tOnRmzeY1Z8ZMeGqI/jU2NPBYhIwzuhhFY2tCg4KRkJh46c3C/yfExWP29Bmgk6mep81AUGDgRfs7OzvDz8UFfYUlGObsjY7LASYXJcV+C3PYg8WlJmQiqQAWggsEMAXXSTNl+9fXHQ3eLoInyU0I+RHADfYyZBsZwOfgPtQQwKQBGxihSt8YObsOImLVV/B5egUcZj/NfmoGWhvAh4hNn0M5KVysbIkAmxKbJgq2RJ0dBSTIXLoYYI4ZB6nZwxcBHCOUxkgUzOFDyVSiwIOYdUmFaxwf7kVHehayo2K4pFa6yBSl+/fnXzCREQ60dGbOwvq130m7qJ4JYFtHRzDARMFBAQFI1NJfghp30x0zd8YsFcCzpk1H7CVNRglgX0dH9BWV3TDAlNVIAFPE5ooA29kg19gQ/ocOosbUVFCO9A0Fs+esEapOGaHisB7K9p1F4pebYPPgImbdGin4jzM3DLCQ9aFOwZHoTk9Af24a+rmKMV0oZFPZwtoBzoqMvgzgdWvWXAzwrNnY8uNmFbDSCwLY3sUFaafOCRQcFhKilYLJ9bVl02YGd65Ixb/s2MGF29IJ6ZkpWC5HX2GpdoCp7PMKFKxIiER3QiSzuC4KNIT6XRVgYtFBR/+8DOCKk3ooP3oO5X+cRfmBc6g5Zoy073bC/J65SP/gO2x+dQV+fvUttP4psmiRgslkYptYYtEXUbBmFq2NgvsyElEeEYhff9yIAGtzoLIYvRRguQrAnRnZuBRgusaR4eF4ZOEizCWCmzkLSx99DPFxceow8GsVBZ/WxagiE3PEhEcgOkZ7MbGio4Objp05eQp2trYaez9TDpavqyt3c6OeGtSAjL1Y1yiDFckxGMxMhv8FA3zx/rtwO3cKSjI3gn04o0KTDK63s0ahuSli9HSZRbPLUd+INWECisyf8kNnWcaW7z+L6iOG8H/hPaSsWscA/77sXQHg/WdQri6DyVQityYrWRpksKRkecgvc3ZQ+lBPQiSQnYzSEF+sfnsFJtx9N6ZPnw4bvTMYKC/AACX3q2LDI0oWyeDhvl7u/UUy2NBwpBO9hGJsbCyOHT2KE8eOIUlLcIgBdnBA+ulzghYdHRzC42Ckk1zPMw2f8HV3R29eEYYJ4O6rAFyQybFSSYtGfgYCLU0xd/Ys3HnvvZgyZQqObPmBg+od5CXycRecCySDnUnJkqHezgZFFmaINdBDjbmZEEwwMGIZSsoSKU3lh8+hbP8ZBrnykD6Sv96GxNXr4fn9z4jeshdVB86h7CBp0edGtGh9AlhdizYXtWjyZtmOJAOIWnRzoCe6wgPQHxeOnvhwlPt7wtfECCtffxUT7roLkyZNwj333str2/fr0JqXiX5uOyGEDfskLZqK1JTdUCRnIO0SFv1XMCEtmrrKpxMFl9o6IiYkBEEhIX/lHJftSznQ3h4e6M0u4C4x3F+DEtwpksR2cKXgYJfsYHJ0kH82KwUoy0eglRmmTp6MO+++my/Ivffdxxfn01Wr4Gp6AfVBPujw90SLlzPIDmZlx8EGhRamiNY7h1oLM6Y4dlKIcrjilATyWQHEg+dQuPNPZtU1f+ih6qAuyoiFS+Cq28GkQTN7Fu1g2xE7mJIIWrxc0BHgiR5SBoO8ke4og+zYEWz89xd48fnnMGv2HDw4aRL/FrpZp02bhrvvvhu33X47Ah1tgZZaoa6Y8qXV7GBu5pKQgpigYFCp7fU8BDvYAln6RhhVSaPkgkPgdYOeLPK6kF3WlZqFgc7OkeIylSeLEtzL2NHBrsqCLCgLMjBQmIkIuR2WPPKI6m5/8MEHBZDvvRf3PfAAlq14C9u+Xw/HU8dQ4mQLhbcr2lwd0enuhDJrC0ScPol2B1s0W1uiycISTabmaDpvgkaDC2jUNUbD6fNoOGGEhuOGqD9mgLojemg4ZoCGE4ZoOGWEhjPn0ah3AU2GJmgyNkOzuQWaLS3RYmONNnsZ2hzs0O7iiHZ3J3R4uqLFyxVlcjsEGZzFsa2b8MnKt/DUE09g7vwFmKMzDw9NnowHHngAk6dMweTJk3nNmDEDU6ZM5fcDnWRAS51wPciTRe0f2pqE6FuHAj0pmXCTy7m9xfUAnFdQAAcra+QZm2FUrX8gEoOC4eLqdj3nUh3DiddWVmiJT0F/e7vgqpSCDZyqQ65KCjYUcoV8b0kehssLYHBov4pip06dyheDAH7ooYfw0EMP4t577+E7f9HixVj57rv45rPP4HjsCBJMjRGiewY+p09Ad+sW2O/eBcsd22G2YwfMtv0Ey5+287LYuh3mm7bBZMNmmG3YDPMNW2G+YQvMN26B2YZNsNq4BTabtsHqhy2w3LQZlpu3wHLLNlhv2wbL7T/BdtdO2P/2K+x+2wWn/XshO7AXu9Z9i2UvvoAFCxfingcewPSZMzF/wQLMnTsX9913H+644w7Qb5k5cyYI2FmzZvFromL6XUFyOxHgS33RCvQr2tkXTdR7vQmQScnJ8HV2AXHnUQ1RMUjz8oHcRbNXRIXgVV5Q7wnqs1wfm4j+5hYhm0MEWEh0F4u6K4rQX1EM1JRC/8gfuP/++0HsePq0aczG6ILQhaA7f/bs2ZgyZTLvc9ddd+Hhhx/G8hUr8PbKlXhn5Uo8/vgSLHnsMV4LFizAvAULsPDhh7H40Uew6OGHsXDRIixYuIgv/vyFtH0+5ujoQGfBPH6eozMX8+bN48+ZOWsWg0GgECCzCJyZM3nbnDlzQGv+/PmYq6ODmXPmYNacOVi4cBHrCjo6OnzMnXfeyeAS9dL+0rnomY4lRYt+V4iLI9BSLyTfSdGk9mYx+a4KXek53AWAiOZ6HuEREYjw8ka1ly9GNaemI9fZjRPurtRQ82ofRB1nqSUSz1QoLgMG+8Vk92ZmQdSNhvKxBmrLgboKnNj3O+6+5148MHEiX1gCVaJgumAE9KRJk/mZLgoBLFHGa6+/jm/WrME/n3sOCxYt5Is5Z+5cvvgEAFETAccXmTxwOjrC/3PnYjaBM3s2P9P702fMYCBnzprJrwlo9SVtpxtIZ9480HebO2cO5s6Zi8cee4xvRpKxBO4999yDiRMnMugS9RKw9JoWAUy/McxNDrQ2cAKiEA8mJ0cLhgeU3JCmISmNm9Roa9hyNSy8fP0QYiNDQ0QURrXl5qPIxY0zOmpuYOQaeVqo9CLOzw89eYUYHhoUZIpCLBOlko2GanSWF+Hg7l8w4c47cdfdd6uoln48gTp9xnSBombOxNRp0/iiPCRqoRNZNk/GpMmT8dzzz+Ott97CE088AabeefOYRRKoBC5dWGmp/0/bpUVgzRYpl6iWPl9a9D9tp30ZXB0d5iALFy7k/+k9WqQh33777Rg9ejSLEgKYgCbONGXqNMybPx+Tp07FgyRyJk3CFALY3Rloa+BIEncBkNo89Cs5WTE7NIK54dWA1Lbdxd0doYbGaEvPxKjumloeFEkZlQX5+dqOuab3SZP2cHFBV0qWkDJLphK1aGBFqw7DLfUoz0jCk08+iTvuvBPTpk/HtOkzME2kotlz52IG+bvnEpXMFVji3LmYpzMPc2bP5gv85vLlePbpp/DPZ5/BM88+i+XLl+Opp55iaiIgFxCw8wRwFy1aBGktXrz4YoDmLwCBRXKTRAEdS4BK1Ebv0/8EIokGOn7JkiUXnYP2Ic14/fr1nGxICYe0aJSAjY0NdA8fhM2ZE7A8fRyWZ07A+NhhXDh1DBVpiRigEhauGxbrlMRIUk9qJoK8fa47dZYcU85u7kizpJysIowa6utHhZM7/D08EBd/uVfkmpAVd6JBzjRJtDkyDv3tFBPuUWVVkhzua6hGb10FQtzlsNHXhbfMCr62VvCyNIWvlRl8LE3gZ2GCUFtLxNrbINbWElHWZoiTWSBBZoEMZ3tkujigyM8Dn7/3DnQWLMDadevwxhtvMABEsUR5Ejcg6mMqnT1bBSRtJ2Domdgl7SstEhNEgaQIkaJHokHaR6J6+gwCm44hWXvbbbfh+++/51kPDK6NDWzt7GBvZweZ/jmc2LUDZ/f+huO/7USomxw+cgfkxkRgoJE621ZzOhM5hKgZOXWv7UzO4JsjOTn5r1x61b41NdWwlcmQa2PHZUNiXrQrYrx9OG1Hted1vKCiM6rmL4uOQXdJmVB0Rl101PKiB5pqkRDkB3tjI7iam8DZ1AgOBmchN9JFkpcLTI4dwYk9v+GPHT/B9PgRBvzIzp+xe8N32P7t11j30Yf4eOXbWPbaa7jz7ntYfpKsJjY5btw4fpa0cAJgwoQJDAJtI+AIXGKhJDeJcseOHYsxY8bglltuYQ2YKH7UqFG46aabeNE20oxJB6BF55M05VtvvZVlL30ebbv33nuZZdNNQtzh6aefxj9uugmjx4zhcx4+8ifWffcdPGwtgc4WToSgggAhyKDk7vJNyRlchHYtneQ1QZSblwcnS0uUOjhxrzIGuDYkDJmkSbu6au2Oqulkmt6jySfkOOmg3sckh4lNi5kdA831QGcrNq5fj9vuuINlE8lTYtGk2Bz85WemilE334xRN90Mnblz8O3nn2LazJl4aMoUTJo6DQ9NncpK0+6N32PFq6/i/TeX47777mVg//GPfzAopIytXLkSq1evxvjx43kRaB999BGcnJxAwFCzcfK+EWAEPh375ptv8sUlcOl9eo/2ffbZZ1nWL1u2TAU23SR0TqL6pUuX8s1DFE8ynG6i5557Dq+//jrvQzcR7Uvd/dZ8+y18neyAzjbB/qXKBuqK19vDPoTEoBBuNaXp2l7LeyHh4fCX2aLa3Yt3Z4BbMrJQ6uENma0dbkTRojNGR0ezskWdZPpbybeqVFX1D7Q0AF3t2LNrJ+67/35WYOhOf+SRR/Dww4tw8sA+NpfoYtDSmTMHm9etZY2XZCGz1WnTmO0e274Vzsf/RLiFKZ5//nmW6QQIKV67du2C3NkZIX5+kJ08gZN7f8fKd95h+UhDPUbfeisDSTFtGrRx6NAh7N27l+Ue1QXt27eP39+4cSOD/sMPP+DlV17BidOn8doby3D3Pffg3ffew5KlS/HCiy9i1fvvM8AkDui3kBynm+Kbb75hHYBkN22jgMyXX34JX0cZ0N0uNDGV2HNzMzqT0vna0TDP6304u7ohytwKzQlC+JcBpgz4KurNYW8PMpJv5EF9FOlOrYhPQAeVr2BYlR890NoEdHfg8P79rAmTXHv00UcZIFJkzM+exqa13+KtZW/gnRVvYv0Xn2Hbd+sYYEmu0sUjzfn07l0IPHcKmXI7vPLyy3ju2We4DcIglcJWVICeNT3oBiQK/fXXX9Herrk7AR1HnXDpQeU4ubl5WPX2Wwh3ccLJ/Xvx9BNPIMDBHqnB/ti+aRM2b9zAtjxRLv0e+q5E1RQsOH36FLZv3843zZ49e7B06eMIdHMGejpY+ZRiwDQpRqoR1tq0VNMPUnuvpbUVVtY2yLGxh6JImO/AAGN4mOuDEwODtLZvUDvPVV+SohVABWixKUL6DrXhpyEX7c1AbzcO/P472790IYgqiTrp9cZv18Do1Akc3L0TB3f9ggPbt2L5K68w+yazg1ggsXSdeTrw0DuDah93lHs5I97iAvxMz2NgaAjFJSXYt38/Kzph4eGIio4BPZOGT+vAwYMMxmNLluDgH3/Aw9MTAQEB8PP350XTx0gLJhZOg7EGxYbea1Z/yKlDiohAlPp5oi0yGEXebji4fRt2rF3Dfmeyi5988in+LeQkeeGFF/DMM8+oTC1yvNDvjfD3BnpJdDXzzT/Y042OuGREBgZedx4WgZKZlQWr88Yod3LDQJcwl1gAGADJ4QL/QFhYWanu3qsiqWUH6mlMVEyt+2g6ChehURMwRSvQr8SRA/vYC/TIo49i9uw5WLLkcfY8TXzoQdx1zz2sPE248y7cP/FBNqXIOUHAktOBZPX0WbPgrnuaozetwT4YiAxGlMwSfxw5wucZM3Ys29nkRCEblHzD5C27W4zokFn1+ssv4+mlS/m8JC5o8T733M32+R0TJnD0h2T54aPHsGr5clSQDzwyGNURweiJj0C+rwf++GU7tnz9Je6bOBFz5szFoocXsSOFvqskUug7kzlI3GfGzBkCwP09KuWqq7QcLbFJLEJupHTUw9sHwTZ2qFYbuqUCuC2/kF1b1DXtevNx1fGmTucRQUHojCMq7uPgA/XHGu5qR0ZcFFxtreHlaAdnCzP42NvA8YIRrHVPw+rsScjOnYbVmeOwOnkUspNHYX/2JJx0T0N+7hTsTx+D7MQR5Lo6ooPKSkN80R7mjzwXexjt+glGv/wEq/17YP77Lpjv2Q2rA3tgfWAPbP/YD5sDe2C17zf4659DoZsTitydEWxsCJsDv8Ny/2+w3v87rPb/xq8t9v8Gs727YbRzB/R2bIPt0UMo8/VAa3QoaiODoYgNQ31UMOKd7REms4TZ0cOQnT4Be93TcDDUg9MFA9gb6UNmqAu5+QXYm1yAs5UFnGVWqMrP0oN3DgAAG4VJREFUxjDd8DTJpV+JtqgEpMUI8V9tokX92mp6TVPnzCwtkWHrgBZp7K5UPkoHDPX2otzBGRE+vpC7aO57qOnE2t6j6jhSYNponBzlaZHrkmuVmoGONlYy0N7ELjs0VAF1lUBNGVBVDFQUAqW5GC7OxmBeJgZyUjGQnYz+jAQMpMbxUlDGh1Q3HCqArIwKgjIyCN3hAegO80dXqB+6QnzRFUzLR/WsCPRCq5872v090RHoLewT4sf703E9EYHoiQyCMiqYkw56Y8OgpHIUsQse9eJqj6WWiVHoSU9Ab1YyUJiN4aIc7j+N8kLhd5BbtrEKaK4FWhuBjhaWvUM0BohqkQZ60VFYxHOYqGiegvnX+6CyUWtTM5Q7OqNHrW+ZioLpxDSLsCw8ksfDSkrG9X4gHUezGAJ8fNCVkIqBnm6udqApZNS3kVspSc1YOMokdHCnnGlVtx1OqxWr/qWeHZSKKlX+R1N3uyAGWmqpxLVMVCge5C10yKEST8pbpkpAfw9uw0AF5NyOgd+jbZ5CvS931BHLULjhilA1SDcStzhkYKU+WdS/kkpTqPEK9a6k+iOxipD6SlOrYcra4BZK1DS8ClJgn/LFeSqbsod7d2anpuLEiRMaU2Cv9fo7yOUIsrFFpbY+WXSijvIKVLt6wFnujMgrzEW61g+lvk/UbacmnirdKTIyJHS6Y/dlk9jpTuzozm36qXWw0AyNm7JItUuUeSmVt6jaGKr1pxQrEbkaggLwoX5CrRAVrnEnHurGI3TkaQ7ywsgSWyTRNqpMIFBD/DiLhOqiVMBScbcErtimYQRcqlqgJmhiP2mp6Qp31qH2/0ITNPZaSe2TaFLLYB/a0rOgyMzh6Wk0COx6HzQegaa8FDjK0ZR68eyliyiYZhsVyxyQR70qTUxu6I6Sviz3y3JwgCI2hftlUc8OzuDntg5Cj2ju26HWM+tikKnpdwpfRCoBoWbfqjpiuthUrCZ14WGghZaGAtgBQvptKIFOi/pqEIDSEvps8Da6MQhU7mpHTUkv6UArdbcTWxjS9xBKUsTKQcqa5I7wUoc7Alfox6FsEOcuUXkKDdbq64ayvh5dccncVYeicDfyCAoKhqvMlntV0rge9cdFANOG+rgEVPn4c15tTpb2DrLqJ7nSa7KLqetORmws2mOSQR3vqIpOaEhKU8uk3h1iQoDUkJQ6AKh1vhOaowlt+hlkqfsdsWwCWmLbVBlBFCeBTR3xqJMssVnqKqu+CEzeJnaapfpekVq5woKqBAlYNaqlm0tBJaFcbyRSbr7QooHEC92cqoQ6Vd9o6ovVIIzfoR7Zym4eaVuekcnm2PW6Jem69/X2wsDYGNnunqj2uzhXnbZfBvCgshcFxmZIjYnlljxXAu9at9F0bZrB25icCkU6DfcgVt0perjE6SqUt6XW6Z3nH4ntDbl3JbcVpmbgYqslat1PCfNSRx6x9QMDIlG1RNlqoEvgX/RM22nR/qRMSaDSzUPnlWqMJGBpfIDUQYf7RWcLqbBSwzORcrk0lNol0eg9aYbDYD+zZUVaFl8TcrzcyIMUMydHRxSZWUGpplxJ57wMYNpQGRiMMk8fyBwdtM5rkE5wrc/ko6bp2oqYRHRSIIJA7uoQWywJIKs64DG7FjrxCOyaFC+xnwe1OpQag0szGlKFGQ3cIUACRI2yJdCZnRP44qL/eRGgl4JKHEKs76UbSXNbf+q7QdWCwtgdbrBSKbZJou6ylExHU1hIqWK52w+yeWlkH3VDoHLbG3kMDggd35PkLqhwFcbLX3o+jQATHy8wsUBcSAicnJ0vPea6/qchEuT8CAsORndcCnrq6gFqcUggX9rWn4vFqX90qTCQgyiZBlWpJq1k8JCMziyheI3YJSlh0jAOHrLBLJxmN1D7YWnRbAb1Jb4v3RQ8r4Ha+IvzGkjOSsM5VFNYhFb+wiAtmsBCLFma2UBjdsQxeCLlUiiQGtHQjENlYyPaw2OREBXFJqTWYVnXeIUpZ8uJGrebWELZoLlzvEaA6fw1YZEo9vCChY0NqLrwWh7D/QMALS0P8rGSPzY5KgqdsUnoox7JDLI4L4kGP3KbYbFJOF0sYnfirCS6mCSX2YzicTrCjCRJCeMca9WADnHyCplXxMZpJV+ypPdVE1fiuJWEAKrUup/YMY3XSRcapUpNRsVCbmqDLJhCNNySwK1m60Bgy+K00r4e9Le1ozUkGiWZmdzKn7x9N/IY6O+HpY0MsTI7VHlpb3+oFeBBpZLn4yWEhMJaduWRsNIXLfAOgMm3GzF4hbF2dLMQyIWpqWgLjUa/QiE6QUYomRUvmsBC42GpKpHsZGqRT0DTvCIaYScBTV3hiW3z7CQahpXKgzO4tS8VfJGNSgoRUSKvBKEYjNoNMnUKs5WEETriGB2S8yRjKW9bBaw4+o5KP8WRd8yS6QYkkXLRcKxGVqiIcikM2N/RgfaoeDSXlODAgQNI0FKR0FpSxhPRexVaxuBJFxpgp4iDjQxFNP3sCnMftAJM56qPjUeFly9kdvZIT0tTO/3lL5ty8vHlP1/AolvGIuD42ct3UHuHMj9oQFRhQgIPfu5XdIx4umjgs2qsHc1zoKbhNK9QHJDFWjb1lxZH2jHQ2UITcYmqaXIZgUOyWm0CGo8G4KFX4uArZrsCmHxjkKMiR6RUOpc09YzaAquAFaeVSj2gqS0hpd+wKSSOtyOZ29nGbRz729rQHp2IupwcdmaEhYWpXYmRl8qGZmx64nn8uGgpyoLCURGpPbumQ6GAkckFpDnIURtw5cL9KwJMPmSyi3MiIqB//rzW7muKymq8PlOHm4Q7Hz+DRENTFPhcrrKP/BzwfF2SySXp6WiPiENvM418GxY8PJSfRMOYpSloDTQjuEpog0jUQs4DaRKaNL+QZLQENg+kFADiTj5M4WozCi/9n2xYEVBhHpJIrXQ+KhQj00fSkKUBlSqqreEmM6xM8STSVm7FQI6M3qYmnnhWkZrG4EZFRalfAtXrgd5e6H+xDn888wrOfPIVUizt8eHUOSjRMrXV3cMTHjJblFjZoVfLpBvp5FcEmHZqzc1HuYOcsx8cHByl4y56Lk5IwpO3jEeik5A8H2JmjZdunYCCQM13q3QweW9o3E5OQgK6Y5PRXVHFIAtTvoWZwar2/6rpo0L6LbNtcaQsjwOgCaRE1aVqE0hVgGcLTV+oXEZ90Y3AQyiFSaV8g1D1H4kAYsM0bpZ6ikhyVo0d81wkiWrFeYWUuUJKI4YH+LcoouJRlpXFMwtjrlDcZ7X1F8y5eQy+f/J57HlxOay+2YDlE6eiPPbymm3y8RsanUehvSMa4q7emfCqABMYpS4eqIuKgd7588jW4Pzo6+zE76+/DYtffoPrKV28ePdEGGzYDJ+NO1CTdGXWnpuby9kUMZGR6IhJREdOPqfc8vxgSvchlk01ThLbbq4Tap2o7xY1NiVKkmYIs5y+ZIawSOFMhTwjmIC7dIlzg2lf8h/zwGhpyijJWJo0Kg674kxImjYqNvUmLVlBVCuk3dBcCvoNisg4ZKWmssxNSbl4UIZ0g9NzyPFzCPllP059vxn3/eNmbF/+DnY/9SJCL1xuQlHeOmWVJNFsDTtHrfMh1c9/TQD3tStQYGyO4tQ0nNPVQ0eHQv0c/LqlsAR733wPX9FwY1uB0g9/+hXenDITjXmFl+2v/ga1YDpy5AhoCnhTHFX8Z6KPsi2GBznbn12bCpLNLcKsJdVk0lpBEWMZLYJNChlRGoHN6+JJ4AJ4I5PBVf+TTKX96Vg6hwQqKXk0j1AElsfVEcWK84I5kaG7k3UIauxNU90USemgpug0caawUPtvj7eyw7O33AYffWF2kvGOXZh38xiYbvtF/fKoXjvK5fDz9EKxqRU6q6pV71/pxTUBTCdozsxBgbEFIsPCIZPZaj5n/yC6S8rRWVQK/a0/44Vxd2HO2Nthu2UnGjOu3POJUmMoE4TSXAri43lSSyd1zOvv4wGWlFY62KEQbeZmTnfpbxZ6UNPET65gJK2bO+qJQ6TJbFFROE0K17IITN5PHBVPNwwrTjTviPzI4nxg0SPF+oGiTYzn9nLWSkduAX/n8qRkrgqkpnBaU4KGhhGhZ4xMMxm8DM7jtXsfRKi1Hdqy8+G2az/Igrn0kZyUBAsraxRY26E2Qnst96XHXTPAdGClfzDK3bxg6+CAkGDNiWE0FPrbh5fi5YlT4bzjN6yaroODy9/DiodmoMD/yhoffUZ8fDxr2B7u7ujMyOVgeE91LbfG5cJycnFSXJnqnkgRI9ZN499bRLDJvCLAG2rEJYLOLJ3Yutqi93gJOcp8DANax/nKXPVHoPLgZ4EV88wjGgDd14Ph4QH01NSiNTIenZl53LeEEvi0acp88YeGYbF7LxbcPA6uR0/xW166Rnh/9kIMtF3OGWmH8rIynvqd6eSCUoe/5nj6SwDThxVayVAZHYsL5ubI1dKJLdLeCa6bd8L2+CksGT0e706eCYcDf8Lxk28QbaWF+vmnCn8o25EyQnR1dZGZlISW8FhusNbX2MxNTjkdV9nFk0vJHCGwqbZHAJsCGAR4g7CoNLO5XgCsScOzuF3FehnQJpb57IXi4Hwba8ZU80weKeIqyvoGZsXtUXEoSE/n2Pfp06fR0NCg9ksueTk4hI6aOqSb2WDdq29iyk2j4alrCKMNW/HHh5/xTXzJEaCaL30jI0Q6u6LIxAIDPRdHiy7d/9L//zLAva3/r7ozAYvqOvv487mgia1Z2qzGtGq1prWmSb5otFqNj3FJTGIMGrWJ1qdps9jEbGr9olZrbBZN4oIoi8M6w8DMMAwyLDLAgGwyEBFkk2HYXUARBDEq+Pue9yLGIIPELeY8z33m3jvnvuec+957zznv+b/v/wQSWys/JZUtwhLijALg2zOsmr+AB3r0wuIboJT7z+nP83iv20jdskMhl+5YmY7HAnGVqZSQa+2zig05U6GDa66oUoKtnZc+Wihqm0XZJ9uWIWVQJgqvr2ubaskbLgOhE6K0y7e2820PR9unt67t+sa2T7DIlSChgkg519TEqdJyTmUf4GTGPg4kJipQW6mjAPS6SqV7M1nz3Czly/beS7Mpi47nnRdmKZTuK6fNRKaaHZMEnlMHaTAH6yhRBdBYdjkTbMdrOh7/YAWLgIYSByX+gWRYrQpLWkND55+WvDgr4Z9upLHQjtuSD3n4f3oTvO4z9rnv5Is5r1GlwGo7Vun7x4JRkhWXrVu3Kn1busVCbcY+xUm6Ka+ojVHtdLNC/iEhjFsFhy399YVPeUtjg2J0UN50UX6HTc7LIE4++zLFaTnVpFifaD3b5pnRfIrmyipO5uRzyrafE1k52OLjlYdOvjAymLoS+sWxN4u3HnuKiM3b0G38mgE9XFj2yl/gzDnKhOPIieUvSKtFGxhIoZcPNR0o675/l5wfXZWCRVxNZhYOfzXpycls2rLFOW15Sytb5y5kSI8+bHirLeSP4autDO3Zl7/9ZgSZnRAfd1ZdUbRMNwS7JKNTXUgIB1NTaZIbn5FNQ5YgOB1tJFynT9PaIjbxVkVJMuUScJso/9JNwAfK1nJW8cJQ+J1ONysMqSKr3patGCpO7c+jNN1GmNGodBsygEpLS0NCKHeVhJbuWG4B695YjOvQERezrnx2Ju9OmaEMRgWy3FkyhbWtNtnVwRyKu7qYlSL3qhUsF1fGxlEepEfC13p4ejl9kmvsDv47wxWbdwC55miGudzOfxb9ncKYOGYOHEpWZExnbXR6TqBAEvhUqPMEDSHUtblpaVRbU6hLtVGfaqMxK4dTuYU020s5U32EszW1nDlao/y27yvHh47QXOxQHpSTWfs5kWrjuJgWk9LIS09HYnCKY7tgpqSrEFB9d1J+RAyzhzyCadUnbFv+fzzc04VoDxW5ickK1/K6Kc/z9YzZNCkWvO9LjJEyfXyoMEdRfsEF5fs5un90TQqWYsqjditozDiLBV9/P8RO2mk6d44sD1/G9r2Dkf3vhroGONfKo3fdw4bFSy5e0lp/ZUN7e2bxSS4oKEBgQfJWCU+x+B6FaLUkREdjS0xkn8VCYbSF0rgkKqzJVCemUGVNptKaTGlcojKyz4m1KN1NUmwsBr0enU6nePiJI53BYECwyrLc2Z10MN1GmtZA4kY3xjw4kPnjn6YmJYPXJk7myfsGsHjMBEY98BCvPzWekvjL+20JCivsc3aD6ZqVK/W9ZgWLkMoYCw5NMPG7Y/Hy9qbeCVWq5E3RGVnx56l8vegN5j85lsE9+vBN5G442cTG19/m9bETOZRX0J17eVke8YgXTLf02cIgJg7p4tIp82sBG8hxO/BA9tuP5cGQPBJQVQZLshjSFTP3ZQWLte+b/fh+sIKPp77AqH53YQvQUp6awaDet/PJ/L9SEWmhOieP0zXHqCksprn22GViTLt2EaBWUxSip1R/bSE12oVfFwWLsEPWJEr8NaQl7WGz21acMWlK3uajtWhWf8LKua8SvcmdvBgLr478X16552GG9OnHPuvlT3Z7hX/or4xEpa8UM59MOcT4INMw2Zdz8t/Vgs2lLlW2b7Bt9mTer4fzRL+7CFuxhkn3DGDe4OGKkhePm8SUux/EEd05CbTIkC+Rr5+/wpZi14dSYY6+LoBHkX3dFCzCqhMScfgFKniuzzduROzMV0rR675gdK9+LBs3meWjJ/DIL+7jYP53b7BgxLICQ3CkZcC5zh3KrlTGdf//Qj3831vGuH53Yf70S4oTkhjo0pdXh40kS63n9z+7k1UzXyHHV0tNvvPICfLAealUhKg1ODQhVEReHduKszZeVwVLIUdtWZT4BFCQkoqHaifxV3CFPFZWTuia9RyzJLHq2Znc2dsF+6X22/Pn+XDSNEb36c/6Ga7s8dPIquKPkmoLi3F7613enjSVg7EJrJv6IhNc+rPm7XeU+nw0Zx6j7n2QTbMXsPaF2dQcLOmynkLj6ybOAQYDdpU/1fFXP1p2VtB1V7AUVG8vUVB+5fGJBIXolODUTu2yF2rWerIRn+UfM23gYGza71xnWhubmDRoKEtd55Hmo2Zsv7tJ8teQERjM1jffwRoUQnV2Tpdcxs4a353zGcGhqD/+t2KYqSl28MboP/NU758x+7cjWfH4ONaOn8LvfnEv+3RGDEtXsvDxMUS7ecLpb7sUHx8fzzaPHaQbjMoLcTTz2khBnRV2QxQshX1b34A9IIhSnZE9CQls2ryF3G6QLjYcLKFewjBJX119GM8lSxnUw4WKfW3I/xF3/pL1f3uT3du9lfOfPfM8z/e/F/VnGy628XB2LtlhEdQ5LuCezrVw/sRJWi64VEpG+XI0VB26eE1LXT369Rv4dO4CVj77EpW5bYsjH06cwrCeffB4r43Kfq85isXDH2PRo6MY2rMPPnMX8WSf/nz68nyOZGRxvrHposzOdgQDrfL1QxscTJ5WR7HKH2F/vVHphim4vcJVsXGKmS0/OYWt7tsV/2MZ4HQn1eYXsXjsRMbc+wDhqz9hjet8BvdwYb/JzOYlHzGkX3+WPz2N7S+8QvjnbYZ7kZsfEc242+5g0kODOFVehdeCfzB/wG8wvr+S44XFrJwxi9WPj+Ovv34Et3c/oKmymmUvujLrV0Mx/+dz/jXpWaI3bOZ0fQNv/nE0C39+HwN69Cb48y+RB3DWsBF8NflF/vmHUcSu/YzyuKRufUGEuOTLzZuxmMIpUWspNYTR2s3pV3fuV2d5briCpVBBhdh9AijfbSE8NJTtXl6Inblb6VwL9sQU/D9cweq/LCTeV01JWCR/6H8380Y8wabZr7HH04cyuckX0vGKKhYM+T1j+vZn5xtLmH3n/Qzr3RebwaTYfyc9PJh6RzlJgcEM6unC+mkz+VUPF4xeqnYRHLVlszfEwDMPDcK4dBVzh49kcE8X/F5ewFfzFxHn5gFHai/m72qn1FGKWhuMj0rF/lCTMhCtzXQOAuhK1g/976YoWColHucVUTE4/DXkREYTotcpzub5eVceaXdsVKavmvdfdOWDCc/w70nTmfLLB7F6fIeAyDLHsHjCZP7+9BSe6NWPLyY+x5/uH0hpYjLjR/6RNydPbxPZ0Miw237Ox+OfYeLAQbz02CgKEpOJ8fBmx5yFbJzzGjMeGER13B7SPXwwe6qUuWzH+jg7FpiwxMxQ+fmTqA9VuqwKk5lvj9c5u+S6n79pCm6veWNZudJQuyaYfUlJqPz9Ufn4cjUsXw3lFWTHW9mj1XGu+cIi+ZmzuLm+qoDWlo55mqkDBrFp+ssM79mXhK/dCFy7nkd73Y77+8v414xZTB84hMqsbAqtSSz600Tm3nE/y4c9RtneTCrzCqjIzObMFYBt7W1r/xV/rPBdu5Q13JiwMPIDg7D7BiA8kTc73XQFtzfwSLqNIm8VFZExpMZaFG9GjTa4S4hL+7Vd/ra2cszuwJ6cTmlyGpWJqVg9ffBfvY70C1CirLAIPN/9CO3a/1J36VTmPIS6LsT7uTngJIhLV2XLG7vbEsvmbdvQq9UUm6Ow7/RTjEAS2vHHSD+agqWxwl0sHhSOwCDKI6JICo9QQPYBmiCFQ6KhwXkUnBt1s+rLKmg83MWifYeClSg8BQVIfEhvlQ/hag35RhNlgUFUxVg4e7KxwxU39/BHVXB7U882NXE4OZUKvZGSkFDSDEaFRS1Qq1WM/VmZWZ3yRLRff7N/xfxZdLCI6JgY/DQaZdE/TqPlQKAWYVM/lJCEACNuhXRLKLj9RrS2tHAir0BZRSny9iPfYCJdnJvDwhSIkLjQZGTYfvBCQLv8a/mVflVWrsLCw9nh5UWQXk+sBP3U6sj3VFGuN3I8O6dTwNy1lHut195SCr60Madrj1ERtZsiL1+qjCaKIqNIj47Bz3sn29zdkZgU5qgoZSlPYLeygiVv1vVIsghx+NBhiu12LAkJSvRWUep2NzdiDaHkRkRSYYpQMFLlxvA2T8nrUfANkHHLKvjStjbYSzgUb6VcZ+SQyUxZuJm92hAs2hAMEt3V35+g4BBCTSZMERFERkeTmLRHIfuS4GDCYVDicHy3lZZSWFREbt4BhIp1T0oKu+MshJvNGCMi0BmNysqO1scXc6CapEAN+ToD1eFmKg0mqi3x1BUU3nAjxaX34Gr3fxIKvti48+dprq3l+P4chIqgMmyXEoKxRBdKQYieTH81Cb5+JBiMWHdFEC/KDg1lV2gooSEh6HU6JV6kLkirxLU2GwxYwsOJD99FgjEMa6CGNJUfORotRVo9ZXqjUsbRxGTqsnM4dfgIrbfKitbFm9L1zk9LwZ205XxLi+LkJbEZ63PzqE1J40iclUqTmVKtjiIvP/LdPclz9+SA2w7yZHP3oGCHN0XevorJsCJsF0fiEjiWlsGJ/bk0HCxWYLHifPdTT/8PdLkTTkQWflcAAAAASUVORK5CYII=;" parent="WIyWlLk6GJQsqaUBKTNV-1" vertex="1">
          <mxGeometry x="140" y="-5680" width="120" height="119" as="geometry" />
        </mxCell>
        <mxCell id="xApCtgJO4M7rXuDMR1TI-17" value="&lt;div style=&quot;text-align: right&quot;&gt;&lt;span&gt;Unidade curricular: AED1&lt;/span&gt;&lt;/div&gt;&lt;div style=&quot;text-align: right&quot;&gt;&lt;span&gt;Estudante: Enoque Chitsumba&lt;/span&gt;&lt;/div&gt;&lt;div style=&quot;text-align: right&quot;&gt;&lt;span&gt;Docente: Eng.&lt;/span&gt;&lt;span&gt;João Cazança&lt;/span&gt;&lt;/div&gt;&lt;span&gt;&lt;div style=&quot;text-align: right&quot;&gt;&lt;span&gt;Novembro 2021&lt;/span&gt;&lt;/div&gt;&lt;/span&gt;&lt;p class=&quot;MsoNormal&quot;&gt;&lt;span lang=&quot;EN-CA&quot;&gt;&lt;/span&gt;&lt;/p&gt;" style="text;html=1;align=center;verticalAlign=middle;resizable=0;points=[];autosize=1;strokeColor=none;fillColor=none;fontSize=17;" parent="WIyWlLk6GJQsqaUBKTNV-1" vertex="1">
          <mxGeometry x="325" y="-5660" width="250" height="100" as="geometry" />
        </mxCell>
        <mxCell id="Wzc2rEjhIDLnKcr3N48x-2" value="" style="edgeStyle=orthogonalEdgeStyle;rounded=0;orthogonalLoop=1;jettySize=auto;html=1;fontSize=17;strokeWidth=3;" edge="1" parent="WIyWlLk6GJQsqaUBKTNV-1" source="Wzc2rEjhIDLnKcr3N48x-0" target="Wzc2rEjhIDLnKcr3N48x-1">
          <mxGeometry relative="1" as="geometry" />
        </mxCell>
        <mxCell id="Wzc2rEjhIDLnKcr3N48x-0" value="&lt;span style=&quot;font-size: 17px&quot;&gt;Inicio&lt;/span&gt;" style="strokeWidth=3;html=1;shape=mxgraph.flowchart.start_1;whiteSpace=wrap;" vertex="1" parent="WIyWlLk6GJQsqaUBKTNV-1">
          <mxGeometry x="226" y="-1026" width="100" height="46" as="geometry" />
        </mxCell>
        <mxCell id="Wzc2rEjhIDLnKcr3N48x-4" value="" style="edgeStyle=orthogonalEdgeStyle;rounded=0;orthogonalLoop=1;jettySize=auto;html=1;fontSize=17;strokeWidth=3;" edge="1" parent="WIyWlLk6GJQsqaUBKTNV-1" source="Wzc2rEjhIDLnKcr3N48x-1" target="Wzc2rEjhIDLnKcr3N48x-3">
          <mxGeometry relative="1" as="geometry" />
        </mxCell>
        <mxCell id="Wzc2rEjhIDLnKcr3N48x-1" value="nomeVendedor,&lt;br&gt;codpeca, precopeca, qtypeca, comissao" style="html=1;strokeWidth=3;shape=manualInput;whiteSpace=wrap;rounded=1;size=26;arcSize=11;fontSize=17;" vertex="1" parent="WIyWlLk6GJQsqaUBKTNV-1">
          <mxGeometry x="184" y="-928" width="184" height="102" as="geometry" />
        </mxCell>
        <mxCell id="Wzc2rEjhIDLnKcr3N48x-8" value="" style="edgeStyle=orthogonalEdgeStyle;rounded=0;orthogonalLoop=1;jettySize=auto;html=1;fontSize=17;strokeWidth=3;" edge="1" parent="WIyWlLk6GJQsqaUBKTNV-1" source="Wzc2rEjhIDLnKcr3N48x-3" target="Wzc2rEjhIDLnKcr3N48x-5">
          <mxGeometry relative="1" as="geometry" />
        </mxCell>
        <mxCell id="Wzc2rEjhIDLnKcr3N48x-3" value="vtotal &amp;lt;- preco * qtypeca" style="rounded=1;whiteSpace=wrap;html=1;absoluteArcSize=1;arcSize=14;strokeWidth=3;fontSize=17;" vertex="1" parent="WIyWlLk6GJQsqaUBKTNV-1">
          <mxGeometry x="180.5" y="-766" width="191" height="71" as="geometry" />
        </mxCell>
        <mxCell id="Wzc2rEjhIDLnKcr3N48x-7" value="" style="edgeStyle=orthogonalEdgeStyle;rounded=0;orthogonalLoop=1;jettySize=auto;html=1;fontSize=17;strokeWidth=3;" edge="1" parent="WIyWlLk6GJQsqaUBKTNV-1" source="Wzc2rEjhIDLnKcr3N48x-5" target="Wzc2rEjhIDLnKcr3N48x-6">
          <mxGeometry relative="1" as="geometry" />
        </mxCell>
        <mxCell id="Wzc2rEjhIDLnKcr3N48x-11" value="" style="edgeStyle=orthogonalEdgeStyle;rounded=0;orthogonalLoop=1;jettySize=auto;html=1;fontSize=17;strokeWidth=3;" edge="1" parent="WIyWlLk6GJQsqaUBKTNV-1" source="Wzc2rEjhIDLnKcr3N48x-5" target="Wzc2rEjhIDLnKcr3N48x-10">
          <mxGeometry relative="1" as="geometry" />
        </mxCell>
        <mxCell id="Wzc2rEjhIDLnKcr3N48x-5" value="se( vender)" style="strokeWidth=3;html=1;shape=mxgraph.flowchart.decision;whiteSpace=wrap;fontSize=17;" vertex="1" parent="WIyWlLk6GJQsqaUBKTNV-1">
          <mxGeometry x="217" y="-627" width="118" height="106" as="geometry" />
        </mxCell>
        <mxCell id="Wzc2rEjhIDLnKcr3N48x-14" value="" style="edgeStyle=orthogonalEdgeStyle;rounded=0;orthogonalLoop=1;jettySize=auto;html=1;fontSize=17;strokeWidth=3;" edge="1" parent="WIyWlLk6GJQsqaUBKTNV-1" source="Wzc2rEjhIDLnKcr3N48x-6" target="Wzc2rEjhIDLnKcr3N48x-13">
          <mxGeometry relative="1" as="geometry" />
        </mxCell>
        <mxCell id="Wzc2rEjhIDLnKcr3N48x-6" value="comissao = vtotal * 5/100" style="rounded=1;whiteSpace=wrap;html=1;absoluteArcSize=1;arcSize=14;strokeWidth=3;fontSize=17;" vertex="1" parent="WIyWlLk6GJQsqaUBKTNV-1">
          <mxGeometry x="428" y="-602.5" width="213" height="57" as="geometry" />
        </mxCell>
        <mxCell id="Wzc2rEjhIDLnKcr3N48x-9" value="&lt;b&gt;1&lt;/b&gt;" style="text;html=1;align=center;verticalAlign=middle;resizable=0;points=[];autosize=1;strokeColor=none;fillColor=none;fontSize=17;" vertex="1" parent="WIyWlLk6GJQsqaUBKTNV-1">
          <mxGeometry x="368" y="-608" width="19" height="24" as="geometry" />
        </mxCell>
        <mxCell id="Wzc2rEjhIDLnKcr3N48x-17" value="" style="edgeStyle=orthogonalEdgeStyle;rounded=0;orthogonalLoop=1;jettySize=auto;html=1;fontSize=17;strokeWidth=3;" edge="1" parent="WIyWlLk6GJQsqaUBKTNV-1" source="Wzc2rEjhIDLnKcr3N48x-10" target="Wzc2rEjhIDLnKcr3N48x-15">
          <mxGeometry relative="1" as="geometry" />
        </mxCell>
        <mxCell id="Wzc2rEjhIDLnKcr3N48x-10" value="&lt;p class=&quot;MsoNormal&quot;&gt;&lt;span lang=&quot;EN-CA&quot;&gt;N&lt;/span&gt;&lt;span lang=&quot;EN-CA&quot;&gt;ã&lt;/span&gt;&lt;span lang=&quot;EN-CA&quot;&gt;o ha comiss&lt;/span&gt;&lt;span lang=&quot;EN-CA&quot;&gt;ã&lt;/span&gt;&lt;span lang=&quot;EN-CA&quot;&gt;o&lt;/span&gt;&lt;/p&gt;" style="strokeWidth=3;html=1;shape=mxgraph.flowchart.document2;whiteSpace=wrap;size=0.25;fontSize=17;" vertex="1" parent="WIyWlLk6GJQsqaUBKTNV-1">
          <mxGeometry x="130" y="-469" width="160" height="60" as="geometry" />
        </mxCell>
        <mxCell id="Wzc2rEjhIDLnKcr3N48x-12" value="&lt;b&gt;0&lt;/b&gt;" style="text;html=1;align=center;verticalAlign=middle;resizable=0;points=[];autosize=1;strokeColor=none;fillColor=none;fontSize=17;" vertex="1" parent="WIyWlLk6GJQsqaUBKTNV-1">
          <mxGeometry x="283" y="-512" width="19" height="24" as="geometry" />
        </mxCell>
        <mxCell id="Wzc2rEjhIDLnKcr3N48x-18" value="" style="edgeStyle=orthogonalEdgeStyle;rounded=0;orthogonalLoop=1;jettySize=auto;html=1;fontSize=17;strokeWidth=3;" edge="1" parent="WIyWlLk6GJQsqaUBKTNV-1" source="Wzc2rEjhIDLnKcr3N48x-13" target="Wzc2rEjhIDLnKcr3N48x-15">
          <mxGeometry relative="1" as="geometry" />
        </mxCell>
        <mxCell id="Wzc2rEjhIDLnKcr3N48x-13" value="&lt;p class=&quot;MsoNormal&quot;&gt;O valor da comissão é: comissao&lt;/p&gt;" style="strokeWidth=3;html=1;shape=mxgraph.flowchart.document2;whiteSpace=wrap;size=0.25;fontSize=17;" vertex="1" parent="WIyWlLk6GJQsqaUBKTNV-1">
          <mxGeometry x="553" y="-478.5" width="192" height="79" as="geometry" />
        </mxCell>
        <mxCell id="Wzc2rEjhIDLnKcr3N48x-15" value="Fim" style="strokeWidth=3;html=1;shape=mxgraph.flowchart.terminator;whiteSpace=wrap;fontSize=17;" vertex="1" parent="WIyWlLk6GJQsqaUBKTNV-1">
          <mxGeometry x="375" y="-464" width="100" height="50" as="geometry" />
        </mxCell>
        <mxCell id="Wzc2rEjhIDLnKcr3N48x-19" value="&lt;b&gt;Exercicio_6&lt;/b&gt;" style="text;html=1;align=center;verticalAlign=middle;resizable=0;points=[];autosize=1;strokeColor=none;fillColor=none;fontSize=17;" vertex="1" parent="WIyWlLk6GJQsqaUBKTNV-1">
          <mxGeometry x="223.5" y="-1108" width="105" height="24" as="geometry" />
        </mxCell>
        <mxCell id="Wzc2rEjhIDLnKcr3N48x-22" value="" style="edgeStyle=orthogonalEdgeStyle;rounded=0;orthogonalLoop=1;jettySize=auto;html=1;fontSize=17;strokeWidth=3;" edge="1" parent="WIyWlLk6GJQsqaUBKTNV-1" source="Wzc2rEjhIDLnKcr3N48x-20" target="Wzc2rEjhIDLnKcr3N48x-21">
          <mxGeometry relative="1" as="geometry" />
        </mxCell>
        <mxCell id="Wzc2rEjhIDLnKcr3N48x-20" value="Fim" style="strokeWidth=3;html=1;shape=mxgraph.flowchart.start_1;whiteSpace=wrap;fontSize=17;" vertex="1" parent="WIyWlLk6GJQsqaUBKTNV-1">
          <mxGeometry x="340" y="179" width="100" height="42" as="geometry" />
        </mxCell>
        <mxCell id="Wzc2rEjhIDLnKcr3N48x-24" value="" style="edgeStyle=orthogonalEdgeStyle;rounded=0;orthogonalLoop=1;jettySize=auto;html=1;fontSize=17;strokeWidth=3;" edge="1" parent="WIyWlLk6GJQsqaUBKTNV-1" source="Wzc2rEjhIDLnKcr3N48x-21" target="Wzc2rEjhIDLnKcr3N48x-23">
          <mxGeometry relative="1" as="geometry" />
        </mxCell>
        <mxCell id="Wzc2rEjhIDLnKcr3N48x-21" value="Vdolar, vmetical, coversor" style="html=1;strokeWidth=3;shape=manualInput;whiteSpace=wrap;rounded=1;size=26;arcSize=11;fontSize=17;" vertex="1" parent="WIyWlLk6GJQsqaUBKTNV-1">
          <mxGeometry x="312" y="262" width="156" height="86" as="geometry" />
        </mxCell>
        <mxCell id="Wzc2rEjhIDLnKcr3N48x-26" value="" style="edgeStyle=orthogonalEdgeStyle;rounded=0;orthogonalLoop=1;jettySize=auto;html=1;fontSize=17;strokeWidth=3;" edge="1" parent="WIyWlLk6GJQsqaUBKTNV-1" source="Wzc2rEjhIDLnKcr3N48x-23" target="Wzc2rEjhIDLnKcr3N48x-25">
          <mxGeometry relative="1" as="geometry" />
        </mxCell>
        <mxCell id="Wzc2rEjhIDLnKcr3N48x-23" value="Digite o valor em dolar" style="rounded=1;whiteSpace=wrap;html=1;absoluteArcSize=1;arcSize=14;strokeWidth=3;fontSize=17;" vertex="1" parent="WIyWlLk6GJQsqaUBKTNV-1">
          <mxGeometry x="293" y="394" width="194" height="59" as="geometry" />
        </mxCell>
        <mxCell id="Wzc2rEjhIDLnKcr3N48x-28" value="" style="edgeStyle=orthogonalEdgeStyle;rounded=0;orthogonalLoop=1;jettySize=auto;html=1;fontSize=17;strokeWidth=3;" edge="1" parent="WIyWlLk6GJQsqaUBKTNV-1" source="Wzc2rEjhIDLnKcr3N48x-25" target="Wzc2rEjhIDLnKcr3N48x-27">
          <mxGeometry relative="1" as="geometry" />
        </mxCell>
        <mxCell id="Wzc2rEjhIDLnKcr3N48x-25" value="Ler o valor em dolar" style="rounded=1;whiteSpace=wrap;html=1;absoluteArcSize=1;arcSize=14;strokeWidth=3;fontSize=17;" vertex="1" parent="WIyWlLk6GJQsqaUBKTNV-1">
          <mxGeometry x="289" y="504" width="201" height="50" as="geometry" />
        </mxCell>
        <mxCell id="Wzc2rEjhIDLnKcr3N48x-30" value="" style="edgeStyle=orthogonalEdgeStyle;rounded=0;orthogonalLoop=1;jettySize=auto;html=1;fontSize=17;strokeWidth=3;" edge="1" parent="WIyWlLk6GJQsqaUBKTNV-1" source="Wzc2rEjhIDLnKcr3N48x-27" target="Wzc2rEjhIDLnKcr3N48x-29">
          <mxGeometry relative="1" as="geometry" />
        </mxCell>
        <mxCell id="Wzc2rEjhIDLnKcr3N48x-27" value="vmetical = vdolar * 64" style="rounded=1;whiteSpace=wrap;html=1;absoluteArcSize=1;arcSize=14;strokeWidth=3;fontSize=17;" vertex="1" parent="WIyWlLk6GJQsqaUBKTNV-1">
          <mxGeometry x="286.5" y="609" width="207" height="62" as="geometry" />
        </mxCell>
        <mxCell id="Wzc2rEjhIDLnKcr3N48x-32" value="" style="edgeStyle=orthogonalEdgeStyle;rounded=0;orthogonalLoop=1;jettySize=auto;html=1;fontSize=17;strokeWidth=3;" edge="1" parent="WIyWlLk6GJQsqaUBKTNV-1" source="Wzc2rEjhIDLnKcr3N48x-29" target="Wzc2rEjhIDLnKcr3N48x-31">
          <mxGeometry relative="1" as="geometry" />
        </mxCell>
        <mxCell id="Wzc2rEjhIDLnKcr3N48x-29" value="&lt;p class=&quot;MsoNormal&quot;&gt;O valor em meticais é: vmetical Mzn&lt;/p&gt;" style="strokeWidth=3;html=1;shape=mxgraph.flowchart.document2;whiteSpace=wrap;size=0.25;fontSize=17;" vertex="1" parent="WIyWlLk6GJQsqaUBKTNV-1">
          <mxGeometry x="225" y="737" width="330" height="56" as="geometry" />
        </mxCell>
        <mxCell id="Wzc2rEjhIDLnKcr3N48x-31" value="Fim" style="strokeWidth=3;html=1;shape=mxgraph.flowchart.terminator;whiteSpace=wrap;fontSize=17;" vertex="1" parent="WIyWlLk6GJQsqaUBKTNV-1">
          <mxGeometry x="339.5" y="845" width="100" height="60" as="geometry" />
        </mxCell>
        <mxCell id="Wzc2rEjhIDLnKcr3N48x-33" value="&lt;b&gt;Exercicio_7&lt;/b&gt;" style="text;html=1;align=center;verticalAlign=middle;resizable=0;points=[];autosize=1;strokeColor=none;fillColor=none;fontSize=17;" vertex="1" parent="WIyWlLk6GJQsqaUBKTNV-1">
          <mxGeometry x="337.5" y="127" width="105" height="24" as="geometry" />
        </mxCell>
        <mxCell id="Wzc2rEjhIDLnKcr3N48x-38" value="" style="edgeStyle=orthogonalEdgeStyle;rounded=0;orthogonalLoop=1;jettySize=auto;html=1;fontSize=17;strokeWidth=3;" edge="1" parent="WIyWlLk6GJQsqaUBKTNV-1" source="Wzc2rEjhIDLnKcr3N48x-34" target="Wzc2rEjhIDLnKcr3N48x-37">
          <mxGeometry relative="1" as="geometry" />
        </mxCell>
        <mxCell id="Wzc2rEjhIDLnKcr3N48x-34" value="Inicio" style="strokeWidth=3;html=1;shape=mxgraph.flowchart.start_1;whiteSpace=wrap;fontSize=17;" vertex="1" parent="WIyWlLk6GJQsqaUBKTNV-1">
          <mxGeometry x="370" y="1311" width="100" height="34" as="geometry" />
        </mxCell>
        <mxCell id="Wzc2rEjhIDLnKcr3N48x-44" value="" style="edgeStyle=orthogonalEdgeStyle;rounded=0;orthogonalLoop=1;jettySize=auto;html=1;fontSize=17;strokeWidth=3;" edge="1" parent="WIyWlLk6GJQsqaUBKTNV-1" source="Wzc2rEjhIDLnKcr3N48x-37" target="Wzc2rEjhIDLnKcr3N48x-39">
          <mxGeometry relative="1" as="geometry" />
        </mxCell>
        <mxCell id="Wzc2rEjhIDLnKcr3N48x-37" value="&lt;span&gt;a, b, c, delta, x1, x2&lt;/span&gt;" style="html=1;strokeWidth=3;shape=manualInput;whiteSpace=wrap;rounded=1;size=26;arcSize=11;fontSize=17;" vertex="1" parent="WIyWlLk6GJQsqaUBKTNV-1">
          <mxGeometry x="327.5" y="1397" width="185" height="74" as="geometry" />
        </mxCell>
        <mxCell id="Wzc2rEjhIDLnKcr3N48x-42" value="" style="edgeStyle=orthogonalEdgeStyle;rounded=0;orthogonalLoop=1;jettySize=auto;html=1;fontSize=17;strokeWidth=3;" edge="1" parent="WIyWlLk6GJQsqaUBKTNV-1" source="Wzc2rEjhIDLnKcr3N48x-39" target="Wzc2rEjhIDLnKcr3N48x-40">
          <mxGeometry relative="1" as="geometry" />
        </mxCell>
        <mxCell id="Wzc2rEjhIDLnKcr3N48x-46" value="" style="edgeStyle=orthogonalEdgeStyle;rounded=0;orthogonalLoop=1;jettySize=auto;html=1;fontSize=17;strokeWidth=3;" edge="1" parent="WIyWlLk6GJQsqaUBKTNV-1" source="Wzc2rEjhIDLnKcr3N48x-39">
          <mxGeometry relative="1" as="geometry">
            <mxPoint x="310" y="1564" as="targetPoint" />
          </mxGeometry>
        </mxCell>
        <mxCell id="Wzc2rEjhIDLnKcr3N48x-39" value="a = 0" style="strokeWidth=3;html=1;shape=mxgraph.flowchart.decision;whiteSpace=wrap;fontSize=17;" vertex="1" parent="WIyWlLk6GJQsqaUBKTNV-1">
          <mxGeometry x="370" y="1514" width="100" height="100" as="geometry" />
        </mxCell>
        <mxCell id="Wzc2rEjhIDLnKcr3N48x-50" value="" style="edgeStyle=orthogonalEdgeStyle;rounded=0;orthogonalLoop=1;jettySize=auto;html=1;fontSize=17;strokeWidth=3;" edge="1" parent="WIyWlLk6GJQsqaUBKTNV-1" source="Wzc2rEjhIDLnKcr3N48x-40" target="Wzc2rEjhIDLnKcr3N48x-49">
          <mxGeometry relative="1" as="geometry" />
        </mxCell>
        <mxCell id="Wzc2rEjhIDLnKcr3N48x-40" value="delta = (b^2) - 4 *a *c" style="rounded=1;whiteSpace=wrap;html=1;absoluteArcSize=1;arcSize=14;strokeWidth=3;fontSize=17;" vertex="1" parent="WIyWlLk6GJQsqaUBKTNV-1">
          <mxGeometry x="551" y="1537" width="180.5" height="54" as="geometry" />
        </mxCell>
        <mxCell id="Wzc2rEjhIDLnKcr3N48x-80" style="edgeStyle=orthogonalEdgeStyle;rounded=0;orthogonalLoop=1;jettySize=auto;html=1;fontSize=17;strokeWidth=3;" edge="1" parent="WIyWlLk6GJQsqaUBKTNV-1">
          <mxGeometry relative="1" as="geometry">
            <mxPoint x="171.5" y="1594" as="sourcePoint" />
            <mxPoint x="93.5" y="1925" as="targetPoint" />
          </mxGeometry>
        </mxCell>
        <mxCell id="Wzc2rEjhIDLnKcr3N48x-45" value="&lt;p class=&quot;MsoNormal&quot;&gt;A equação não é do segundo grau&lt;/p&gt;" style="strokeWidth=3;html=1;shape=mxgraph.flowchart.document2;whiteSpace=wrap;size=0.25;fontSize=17;" vertex="1" parent="WIyWlLk6GJQsqaUBKTNV-1">
          <mxGeometry x="53" y="1534" width="277" height="60" as="geometry" />
        </mxCell>
        <mxCell id="Wzc2rEjhIDLnKcr3N48x-47" value="Fim" style="strokeWidth=3;html=1;shape=mxgraph.flowchart.terminator;whiteSpace=wrap;fontSize=17;" vertex="1" parent="WIyWlLk6GJQsqaUBKTNV-1">
          <mxGeometry x="408" y="2190" width="77" height="46" as="geometry" />
        </mxCell>
        <mxCell id="Wzc2rEjhIDLnKcr3N48x-52" value="" style="edgeStyle=orthogonalEdgeStyle;rounded=0;orthogonalLoop=1;jettySize=auto;html=1;fontSize=17;strokeWidth=3;" edge="1" parent="WIyWlLk6GJQsqaUBKTNV-1" source="Wzc2rEjhIDLnKcr3N48x-49" target="Wzc2rEjhIDLnKcr3N48x-51">
          <mxGeometry relative="1" as="geometry" />
        </mxCell>
        <mxCell id="Wzc2rEjhIDLnKcr3N48x-55" value="" style="edgeStyle=orthogonalEdgeStyle;rounded=0;orthogonalLoop=1;jettySize=auto;html=1;fontSize=17;strokeWidth=3;" edge="1" parent="WIyWlLk6GJQsqaUBKTNV-1" source="Wzc2rEjhIDLnKcr3N48x-49" target="Wzc2rEjhIDLnKcr3N48x-54">
          <mxGeometry relative="1" as="geometry" />
        </mxCell>
        <mxCell id="Wzc2rEjhIDLnKcr3N48x-60" value="" style="edgeStyle=orthogonalEdgeStyle;rounded=0;orthogonalLoop=1;jettySize=auto;html=1;fontSize=17;strokeWidth=3;" edge="1" parent="WIyWlLk6GJQsqaUBKTNV-1" source="Wzc2rEjhIDLnKcr3N48x-49" target="Wzc2rEjhIDLnKcr3N48x-59">
          <mxGeometry relative="1" as="geometry" />
        </mxCell>
        <mxCell id="Wzc2rEjhIDLnKcr3N48x-49" value="delta (?)" style="strokeWidth=3;html=1;shape=mxgraph.flowchart.decision;whiteSpace=wrap;fontSize=17;" vertex="1" parent="WIyWlLk6GJQsqaUBKTNV-1">
          <mxGeometry x="508" y="1645" width="99" height="70" as="geometry" />
        </mxCell>
        <mxCell id="Wzc2rEjhIDLnKcr3N48x-70" style="edgeStyle=orthogonalEdgeStyle;rounded=0;orthogonalLoop=1;jettySize=auto;html=1;fontSize=17;strokeWidth=3;" edge="1" parent="WIyWlLk6GJQsqaUBKTNV-1" source="Wzc2rEjhIDLnKcr3N48x-51">
          <mxGeometry relative="1" as="geometry">
            <mxPoint x="687.5" y="2100" as="targetPoint" />
          </mxGeometry>
        </mxCell>
        <mxCell id="Wzc2rEjhIDLnKcr3N48x-51" value="&lt;p class=&quot;MsoNormal&quot;&gt;&lt;span lang=&quot;EN-CA&quot;&gt;N&lt;/span&gt;&lt;span lang=&quot;EN-CA&quot;&gt;ã&lt;/span&gt;&lt;span lang=&quot;EN-CA&quot;&gt;o existe raizes reais&lt;/span&gt;&lt;/p&gt;" style="strokeWidth=3;html=1;shape=mxgraph.flowchart.document2;whiteSpace=wrap;size=0.25;fontSize=17;" vertex="1" parent="WIyWlLk6GJQsqaUBKTNV-1">
          <mxGeometry x="687" y="1644" width="115" height="72" as="geometry" />
        </mxCell>
        <mxCell id="Wzc2rEjhIDLnKcr3N48x-53" value="&lt;span&gt;delta &amp;lt; 0&lt;/span&gt;" style="text;html=1;align=center;verticalAlign=middle;resizable=0;points=[];autosize=1;strokeColor=none;fillColor=none;fontSize=17;" vertex="1" parent="WIyWlLk6GJQsqaUBKTNV-1">
          <mxGeometry x="610" y="1653" width="76" height="24" as="geometry" />
        </mxCell>
        <mxCell id="Wzc2rEjhIDLnKcr3N48x-58" value="" style="edgeStyle=orthogonalEdgeStyle;rounded=0;orthogonalLoop=1;jettySize=auto;html=1;fontSize=17;strokeWidth=3;" edge="1" parent="WIyWlLk6GJQsqaUBKTNV-1" source="Wzc2rEjhIDLnKcr3N48x-54" target="Wzc2rEjhIDLnKcr3N48x-57">
          <mxGeometry relative="1" as="geometry" />
        </mxCell>
        <mxCell id="Wzc2rEjhIDLnKcr3N48x-54" value="x1 = (-b + sqrt(delta)) / 2*a&lt;br&gt;&lt;br&gt;x2 = (-b - sqrt(delta)) / 2*a" style="rounded=1;whiteSpace=wrap;html=1;absoluteArcSize=1;arcSize=14;strokeWidth=3;fontSize=17;" vertex="1" parent="WIyWlLk6GJQsqaUBKTNV-1">
          <mxGeometry x="198" y="1630" width="210" height="100" as="geometry" />
        </mxCell>
        <mxCell id="Wzc2rEjhIDLnKcr3N48x-56" value="&lt;span&gt;delta &amp;gt; 0&lt;/span&gt;" style="text;html=1;align=center;verticalAlign=middle;resizable=0;points=[];autosize=1;strokeColor=none;fillColor=none;fontSize=17;" vertex="1" parent="WIyWlLk6GJQsqaUBKTNV-1">
          <mxGeometry x="437" y="1657" width="76" height="24" as="geometry" />
        </mxCell>
        <mxCell id="Wzc2rEjhIDLnKcr3N48x-65" value="" style="edgeStyle=orthogonalEdgeStyle;rounded=0;orthogonalLoop=1;jettySize=auto;html=1;fontSize=17;strokeWidth=3;" edge="1" parent="WIyWlLk6GJQsqaUBKTNV-1" source="Wzc2rEjhIDLnKcr3N48x-57" target="Wzc2rEjhIDLnKcr3N48x-64">
          <mxGeometry relative="1" as="geometry" />
        </mxCell>
        <mxCell id="Wzc2rEjhIDLnKcr3N48x-57" value="&lt;p class=&quot;MsoNormal&quot;&gt;O valor de x1 &amp;nbsp;e x2 é:&lt;br/&gt;x1, x2&lt;/p&gt;" style="strokeWidth=3;html=1;shape=mxgraph.flowchart.document2;whiteSpace=wrap;size=0.25;fontSize=17;" vertex="1" parent="WIyWlLk6GJQsqaUBKTNV-1">
          <mxGeometry x="178" y="1789" width="197" height="56" as="geometry" />
        </mxCell>
        <mxCell id="Wzc2rEjhIDLnKcr3N48x-63" value="" style="edgeStyle=orthogonalEdgeStyle;rounded=0;orthogonalLoop=1;jettySize=auto;html=1;fontSize=17;strokeWidth=3;" edge="1" parent="WIyWlLk6GJQsqaUBKTNV-1" source="Wzc2rEjhIDLnKcr3N48x-59" target="Wzc2rEjhIDLnKcr3N48x-62">
          <mxGeometry relative="1" as="geometry" />
        </mxCell>
        <mxCell id="Wzc2rEjhIDLnKcr3N48x-59" value="x1 = x2 = -b/ 2 * a" style="rounded=1;whiteSpace=wrap;html=1;absoluteArcSize=1;arcSize=14;strokeWidth=3;fontSize=17;" vertex="1" parent="WIyWlLk6GJQsqaUBKTNV-1">
          <mxGeometry x="480.5" y="1783" width="154" height="47" as="geometry" />
        </mxCell>
        <mxCell id="Wzc2rEjhIDLnKcr3N48x-61" value="delta = 0" style="text;html=1;align=center;verticalAlign=middle;resizable=0;points=[];autosize=1;strokeColor=none;fillColor=none;fontSize=17;" vertex="1" parent="WIyWlLk6GJQsqaUBKTNV-1">
          <mxGeometry x="560" y="1730" width="76" height="24" as="geometry" />
        </mxCell>
        <mxCell id="Wzc2rEjhIDLnKcr3N48x-76" style="edgeStyle=orthogonalEdgeStyle;rounded=0;orthogonalLoop=1;jettySize=auto;html=1;fontSize=17;strokeWidth=3;" edge="1" parent="WIyWlLk6GJQsqaUBKTNV-1" source="Wzc2rEjhIDLnKcr3N48x-62">
          <mxGeometry relative="1" as="geometry">
            <mxPoint x="544" y="1997" as="targetPoint" />
          </mxGeometry>
        </mxCell>
        <mxCell id="Wzc2rEjhIDLnKcr3N48x-62" value="x1 = x2" style="strokeWidth=3;html=1;shape=mxgraph.flowchart.document2;whiteSpace=wrap;size=0.25;fontSize=17;" vertex="1" parent="WIyWlLk6GJQsqaUBKTNV-1">
          <mxGeometry x="507" y="1901" width="100" height="43" as="geometry" />
        </mxCell>
        <mxCell id="Wzc2rEjhIDLnKcr3N48x-96" style="edgeStyle=orthogonalEdgeStyle;rounded=0;orthogonalLoop=1;jettySize=auto;html=1;fontSize=17;strokeWidth=3;" edge="1" parent="WIyWlLk6GJQsqaUBKTNV-1" source="Wzc2rEjhIDLnKcr3N48x-64" target="Wzc2rEjhIDLnKcr3N48x-95">
          <mxGeometry relative="1" as="geometry" />
        </mxCell>
        <mxCell id="Wzc2rEjhIDLnKcr3N48x-64" value="" style="shape=waypoint;size=6;pointerEvents=1;points=[];fillColor=rgba(255, 255, 255, 1);resizable=0;rotatable=0;perimeter=centerPerimeter;snapToPoint=1;fontSize=17;strokeWidth=3;" vertex="1" parent="WIyWlLk6GJQsqaUBKTNV-1">
          <mxGeometry x="256.5" y="1933" width="40" height="40" as="geometry" />
        </mxCell>
        <mxCell id="Wzc2rEjhIDLnKcr3N48x-90" style="edgeStyle=orthogonalEdgeStyle;rounded=0;orthogonalLoop=1;jettySize=auto;html=1;fontSize=17;strokeWidth=3;" edge="1" parent="WIyWlLk6GJQsqaUBKTNV-1" source="Wzc2rEjhIDLnKcr3N48x-73" target="Wzc2rEjhIDLnKcr3N48x-89">
          <mxGeometry relative="1" as="geometry" />
        </mxCell>
        <mxCell id="Wzc2rEjhIDLnKcr3N48x-73" value="" style="shape=waypoint;sketch=0;size=6;pointerEvents=1;points=[];fillColor=none;resizable=0;rotatable=0;perimeter=centerPerimeter;snapToPoint=1;fontSize=17;strokeWidth=3;" vertex="1" parent="WIyWlLk6GJQsqaUBKTNV-1">
          <mxGeometry x="666" y="2077" width="40" height="40" as="geometry" />
        </mxCell>
        <mxCell id="Wzc2rEjhIDLnKcr3N48x-93" style="edgeStyle=orthogonalEdgeStyle;rounded=0;orthogonalLoop=1;jettySize=auto;html=1;fontSize=17;strokeWidth=3;" edge="1" parent="WIyWlLk6GJQsqaUBKTNV-1" source="Wzc2rEjhIDLnKcr3N48x-77" target="Wzc2rEjhIDLnKcr3N48x-92">
          <mxGeometry relative="1" as="geometry" />
        </mxCell>
        <mxCell id="Wzc2rEjhIDLnKcr3N48x-77" value="" style="shape=waypoint;sketch=0;size=6;pointerEvents=1;points=[];fillColor=none;resizable=0;rotatable=0;perimeter=centerPerimeter;snapToPoint=1;fontSize=17;strokeWidth=3;" vertex="1" parent="WIyWlLk6GJQsqaUBKTNV-1">
          <mxGeometry x="526" y="1979" width="40" height="40" as="geometry" />
        </mxCell>
        <mxCell id="Wzc2rEjhIDLnKcr3N48x-87" style="edgeStyle=orthogonalEdgeStyle;rounded=0;orthogonalLoop=1;jettySize=auto;html=1;fontSize=17;strokeWidth=3;" edge="1" parent="WIyWlLk6GJQsqaUBKTNV-1" source="Wzc2rEjhIDLnKcr3N48x-81" target="Wzc2rEjhIDLnKcr3N48x-86">
          <mxGeometry relative="1" as="geometry" />
        </mxCell>
        <mxCell id="Wzc2rEjhIDLnKcr3N48x-81" value="" style="shape=waypoint;sketch=0;size=6;pointerEvents=1;points=[];fillColor=none;resizable=0;rotatable=0;perimeter=centerPerimeter;snapToPoint=1;fontSize=17;strokeWidth=3;" vertex="1" parent="WIyWlLk6GJQsqaUBKTNV-1">
          <mxGeometry x="73" y="1907" width="40" height="40" as="geometry" />
        </mxCell>
        <mxCell id="Wzc2rEjhIDLnKcr3N48x-82" style="edgeStyle=orthogonalEdgeStyle;rounded=0;orthogonalLoop=1;jettySize=auto;html=1;entryX=0.55;entryY=0.575;entryDx=0;entryDy=0;entryPerimeter=0;fontSize=17;strokeWidth=3;" edge="1" parent="WIyWlLk6GJQsqaUBKTNV-1" source="Wzc2rEjhIDLnKcr3N48x-81" target="Wzc2rEjhIDLnKcr3N48x-81">
          <mxGeometry relative="1" as="geometry" />
        </mxCell>
        <mxCell id="Wzc2rEjhIDLnKcr3N48x-83" style="edgeStyle=orthogonalEdgeStyle;rounded=0;orthogonalLoop=1;jettySize=auto;html=1;fontSize=17;strokeWidth=3;" edge="1" parent="WIyWlLk6GJQsqaUBKTNV-1" source="Wzc2rEjhIDLnKcr3N48x-81" target="Wzc2rEjhIDLnKcr3N48x-81">
          <mxGeometry relative="1" as="geometry" />
        </mxCell>
        <mxCell id="Wzc2rEjhIDLnKcr3N48x-88" style="edgeStyle=orthogonalEdgeStyle;rounded=0;orthogonalLoop=1;jettySize=auto;html=1;entryX=0;entryY=0.5;entryDx=0;entryDy=0;entryPerimeter=0;fontSize=17;strokeWidth=3;" edge="1" parent="WIyWlLk6GJQsqaUBKTNV-1" source="Wzc2rEjhIDLnKcr3N48x-86" target="Wzc2rEjhIDLnKcr3N48x-47">
          <mxGeometry relative="1" as="geometry" />
        </mxCell>
        <mxCell id="Wzc2rEjhIDLnKcr3N48x-86" value="" style="shape=waypoint;sketch=0;size=6;pointerEvents=1;points=[];fillColor=none;resizable=0;rotatable=0;perimeter=centerPerimeter;snapToPoint=1;fontSize=17;strokeWidth=3;" vertex="1" parent="WIyWlLk6GJQsqaUBKTNV-1">
          <mxGeometry x="95" y="2193" width="40" height="40" as="geometry" />
        </mxCell>
        <mxCell id="Wzc2rEjhIDLnKcr3N48x-91" style="edgeStyle=orthogonalEdgeStyle;rounded=0;orthogonalLoop=1;jettySize=auto;html=1;entryX=1;entryY=0.5;entryDx=0;entryDy=0;entryPerimeter=0;fontSize=17;strokeWidth=3;" edge="1" parent="WIyWlLk6GJQsqaUBKTNV-1" source="Wzc2rEjhIDLnKcr3N48x-89" target="Wzc2rEjhIDLnKcr3N48x-47">
          <mxGeometry relative="1" as="geometry" />
        </mxCell>
        <mxCell id="Wzc2rEjhIDLnKcr3N48x-89" value="" style="shape=waypoint;sketch=0;size=6;pointerEvents=1;points=[];fillColor=none;resizable=0;rotatable=0;perimeter=centerPerimeter;snapToPoint=1;fontSize=17;strokeWidth=3;" vertex="1" parent="WIyWlLk6GJQsqaUBKTNV-1">
          <mxGeometry x="666" y="2189" width="40" height="40" as="geometry" />
        </mxCell>
        <mxCell id="Wzc2rEjhIDLnKcr3N48x-100" style="edgeStyle=orthogonalEdgeStyle;rounded=0;orthogonalLoop=1;jettySize=auto;html=1;entryX=0.597;entryY=-0.022;entryDx=0;entryDy=0;entryPerimeter=0;fontSize=17;strokeWidth=3;" edge="1" parent="WIyWlLk6GJQsqaUBKTNV-1" source="Wzc2rEjhIDLnKcr3N48x-92" target="Wzc2rEjhIDLnKcr3N48x-47">
          <mxGeometry relative="1" as="geometry" />
        </mxCell>
        <mxCell id="Wzc2rEjhIDLnKcr3N48x-92" value="" style="shape=waypoint;sketch=0;size=6;pointerEvents=1;points=[];fillColor=none;resizable=0;rotatable=0;perimeter=centerPerimeter;snapToPoint=1;fontSize=17;strokeWidth=3;" vertex="1" parent="WIyWlLk6GJQsqaUBKTNV-1">
          <mxGeometry x="526" y="2114" width="40" height="40" as="geometry" />
        </mxCell>
        <mxCell id="Wzc2rEjhIDLnKcr3N48x-98" style="edgeStyle=orthogonalEdgeStyle;rounded=0;orthogonalLoop=1;jettySize=auto;html=1;fontSize=17;strokeWidth=3;" edge="1" parent="WIyWlLk6GJQsqaUBKTNV-1" source="Wzc2rEjhIDLnKcr3N48x-95" target="Wzc2rEjhIDLnKcr3N48x-97">
          <mxGeometry relative="1" as="geometry" />
        </mxCell>
        <mxCell id="Wzc2rEjhIDLnKcr3N48x-95" value="" style="shape=waypoint;size=6;pointerEvents=1;points=[];fillColor=rgba(255, 255, 255, 1);resizable=0;rotatable=0;perimeter=centerPerimeter;snapToPoint=1;fontSize=17;strokeWidth=3;" vertex="1" parent="WIyWlLk6GJQsqaUBKTNV-1">
          <mxGeometry x="256.5" y="2097" width="40" height="40" as="geometry" />
        </mxCell>
        <mxCell id="Wzc2rEjhIDLnKcr3N48x-99" style="edgeStyle=orthogonalEdgeStyle;rounded=0;orthogonalLoop=1;jettySize=auto;html=1;entryX=0.39;entryY=-0.022;entryDx=0;entryDy=0;entryPerimeter=0;fontSize=17;strokeWidth=3;" edge="1" parent="WIyWlLk6GJQsqaUBKTNV-1" source="Wzc2rEjhIDLnKcr3N48x-97" target="Wzc2rEjhIDLnKcr3N48x-47">
          <mxGeometry relative="1" as="geometry" />
        </mxCell>
        <mxCell id="Wzc2rEjhIDLnKcr3N48x-97" value="" style="shape=waypoint;size=6;pointerEvents=1;points=[];fillColor=rgba(255, 255, 255, 1);resizable=0;rotatable=0;perimeter=centerPerimeter;snapToPoint=1;fontSize=17;strokeWidth=3;" vertex="1" parent="WIyWlLk6GJQsqaUBKTNV-1">
          <mxGeometry x="412" y="2097" width="40" height="40" as="geometry" />
        </mxCell>
        <mxCell id="Wzc2rEjhIDLnKcr3N48x-106" style="edgeStyle=orthogonalEdgeStyle;rounded=0;orthogonalLoop=1;jettySize=auto;html=1;fontSize=17;strokeWidth=3;" edge="1" parent="WIyWlLk6GJQsqaUBKTNV-1" source="Wzc2rEjhIDLnKcr3N48x-103" target="Wzc2rEjhIDLnKcr3N48x-105">
          <mxGeometry relative="1" as="geometry" />
        </mxCell>
        <mxCell id="Wzc2rEjhIDLnKcr3N48x-103" value="" style="shape=waypoint;size=6;pointerEvents=1;points=[];fillColor=rgba(255, 255, 255, 1);resizable=0;rotatable=0;perimeter=centerPerimeter;snapToPoint=1;strokeWidth=2;" vertex="1" parent="WIyWlLk6GJQsqaUBKTNV-1">
          <mxGeometry x="350" y="-3020" width="40" height="40" as="geometry" />
        </mxCell>
        <mxCell id="Wzc2rEjhIDLnKcr3N48x-107" style="edgeStyle=orthogonalEdgeStyle;rounded=0;orthogonalLoop=1;jettySize=auto;html=1;entryX=1;entryY=0.5;entryDx=0;entryDy=0;fontSize=17;strokeWidth=3;" edge="1" parent="WIyWlLk6GJQsqaUBKTNV-1" source="Wzc2rEjhIDLnKcr3N48x-105" target="xEgQFAVt9R7-jzGUVJl_-27">
          <mxGeometry relative="1" as="geometry" />
        </mxCell>
        <mxCell id="Wzc2rEjhIDLnKcr3N48x-105" value="" style="shape=waypoint;size=6;pointerEvents=1;points=[];fillColor=rgba(255, 255, 255, 1);resizable=0;rotatable=0;perimeter=centerPerimeter;snapToPoint=1;strokeWidth=2;fontSize=17;" vertex="1" parent="WIyWlLk6GJQsqaUBKTNV-1">
          <mxGeometry x="350" y="-2917" width="40" height="40" as="geometry" />
        </mxCell>
        <mxCell id="Wzc2rEjhIDLnKcr3N48x-110" value="&lt;b&gt;Exercicio_8&lt;/b&gt;" style="text;html=1;align=center;verticalAlign=middle;resizable=0;points=[];autosize=1;strokeColor=none;fillColor=none;fontSize=17;" vertex="1" parent="WIyWlLk6GJQsqaUBKTNV-1">
          <mxGeometry x="368" y="1267" width="105" height="24" as="geometry" />
        </mxCell>
      </root>
    </mxGraphModel>
  </diagram>
</mxfile>
